<svg width="104" height="113" viewBox="0 0 104 113" fill="none" xmlns="http://www.w3.org/2000/svg">
<path d="M75.9952 0.0968323H75.7458C65.8219 0.0968323 57.0455 5.98241 51.9971 14.6673C46.9487 5.98241 38.1722 0.0968323 28.2484 0.0968323H27.9989C20.5514 0.176378 13.4327 3.54693 8.18996 9.47601C2.94722 15.4051 0.00404295 23.4136 0 31.7612C0 42.1271 4.05068 56.8355 11.9492 68.9383C26.9979 91.9998 51.9971 112.176 51.9971 112.176C51.9971 112.176 76.9962 92.0036 92.0416 68.9383C99.9434 56.8355 103.991 42.1271 103.991 31.7612C103.987 23.4142 101.044 15.4063 95.802 9.47732C90.56 3.54833 83.4422 0.177354 75.9952 0.0968323V0.0968323ZM72.4267 70.7126C71.2965 70.7078 70.1941 70.32 69.264 69.6003C68.334 68.8805 67.6199 67.8624 67.2154 66.6795H61.2824C60.8917 66.6768 60.5115 66.5374 60.1949 66.2808C59.8783 66.0242 59.6411 65.6632 59.5164 65.2482L57.694 59.0943L51.9272 81.6786C51.8149 82.1134 51.5798 82.4956 51.2572 82.7678C50.9346 83.04 50.5418 83.1875 50.138 83.1882H50.0216C49.6003 83.1654 49.1986 82.9812 48.8839 82.6664C48.5691 82.3516 48.3603 81.9253 48.2922 81.4587L42.3493 41.3965L38.0059 65.1029C37.9063 65.5532 37.675 65.9532 37.3489 66.2389C37.0228 66.5247 36.6207 66.6798 36.2067 66.6795H27.8493C27.5987 66.6914 27.3487 66.6464 27.1141 66.5471C26.8795 66.4479 26.6652 66.2964 26.4842 66.102C26.3032 65.9075 26.1591 65.674 26.0607 65.4155C25.9623 65.157 25.9116 64.8788 25.9116 64.5978C25.9116 64.3167 25.9623 64.0386 26.0607 63.7801C26.1591 63.5216 26.3032 63.2881 26.4842 63.0936C26.6652 62.8991 26.8795 62.7477 27.1141 62.6484C27.3487 62.5492 27.5987 62.5041 27.8493 62.516H34.7434L40.8959 30.6429C40.9969 30.1717 41.2408 29.7544 41.586 29.4624C41.9311 29.1704 42.356 29.0219 42.788 29.0421C43.22 29.0624 43.6324 29.2502 43.9545 29.5735C44.2767 29.8967 44.4886 30.3354 44.5542 30.8144L50.6236 71.6817L55.7917 51.4754C55.8993 51.0499 56.1268 50.6747 56.4403 50.406C56.7538 50.1373 57.1364 49.9894 57.531 49.9845H57.5676C57.9584 49.9846 58.3393 50.1231 58.6558 50.3801C58.9723 50.6371 59.2083 50.9996 59.3302 51.4158L62.626 62.5272H67.1422C67.4633 61.4338 68.0477 60.4611 68.8309 59.7165C69.6141 58.9718 70.5656 58.4842 71.5805 58.3074C72.5953 58.1306 73.634 58.2714 74.5819 58.7145C75.5299 59.1575 76.3501 59.8855 76.9522 60.818C77.5543 61.7506 77.9148 62.8514 77.9939 63.9991C78.0731 65.1468 77.8677 66.2966 77.4006 67.3218C76.9335 68.3469 76.2227 69.2075 75.3468 69.8085C74.4708 70.4094 73.4638 70.7275 72.4367 70.7275L72.4267 70.7126Z" fill="#6C63FF"/>
</svg>
