<svg width="257" height="182" viewBox="0 0 257 182" fill="none" xmlns="http://www.w3.org/2000/svg">
<g clip-path="url(#clip0)">
<path opacity="0.1" d="M85.422 181.898C97.9348 181.898 108.078 180.268 108.078 178.259C108.078 176.249 97.9348 174.62 85.422 174.62C72.9093 174.62 62.7656 176.249 62.7656 178.259C62.7656 180.268 72.9093 181.898 85.422 181.898Z" fill="#7085F5"/>
<path opacity="0.1" d="M208.579 182C224.193 182 236.851 180.371 236.851 178.361C236.851 176.352 224.193 174.722 208.579 174.722C192.965 174.722 180.308 176.352 180.308 178.361C180.308 180.371 192.965 182 208.579 182Z" fill="#7085F5"/>
<path opacity="0.1" d="M3.21801 78.6371H26.8161V110.801H4.94561C4.88748 111.131 4.83167 111.464 4.77122 111.796H26.8161V137.736C26.7766 137.724 26.7417 137.71 26.7045 137.696C26.0814 137.45 25.4629 137.189 24.8444 136.91L24.4491 136.731C23.8291 136.438 23.209 136.128 22.589 135.801C22.3727 135.687 22.1565 135.569 21.9426 135.448C18.5004 133.52 15.3733 131.076 12.6698 128.203C12.5908 128.126 12.5163 128.045 12.4373 127.97C12.0606 127.561 11.6909 127.147 11.3328 126.724L10.9376 126.259C10.5144 125.74 10.1051 125.208 9.70755 124.668C9.64942 124.589 9.59361 124.51 9.53316 124.436C7.91612 122.194 6.57346 119.766 5.53387 117.205C5.50132 117.128 5.47342 117.044 5.44319 116.972C5.12387 116.151 4.84098 115.321 4.59451 114.484C4.48755 114.133 4.38524 113.787 4.29689 113.422C4.26433 113.315 4.23643 113.21 4.21085 113.105C2.89016 107.95 2.73438 102.596 2.73438 97.278C2.73438 96.6572 2.73438 96.034 2.73438 95.4179C2.73438 93.2671 2.75995 91.1024 2.79715 88.9399C2.79715 88.3796 2.82041 87.8215 2.83203 87.2589C2.86458 85.8312 2.91109 84.4036 2.97154 82.9759C2.98549 82.5783 3.00409 82.183 3.02502 81.7877C3.02502 81.5599 3.03665 81.332 3.0599 81.1041C3.1157 80.2764 3.16221 79.4556 3.21801 78.6371Z" fill="#7085F5"/>
<path opacity="0.1" d="M26.8163 42.8249H13.8721C15.9762 39.5315 18.2753 36.3667 20.7569 33.3475C22.6798 30.9851 24.7097 28.6832 26.8163 26.465V42.8249Z" fill="#7085F5"/>
<path opacity="0.1" d="M26.8167 43.8202V77.642H3.29297C3.29297 77.5444 3.30924 77.4444 3.31622 77.3467C3.33715 77.0793 3.35807 76.8119 3.38132 76.5469C3.4069 76.2353 3.4348 75.9214 3.46503 75.6168C3.49526 75.3122 3.52781 74.9402 3.56269 74.603C3.59757 74.2659 3.63012 73.9241 3.66965 73.5869C3.70917 73.2498 3.74405 72.9126 3.7859 72.5778C3.82776 72.243 3.86496 71.9035 3.90914 71.5687C3.94402 71.2897 3.98122 71.013 4.01842 70.734C4.0719 70.341 4.1277 69.9457 4.18816 69.5551C4.18816 69.497 4.20443 69.4365 4.21373 69.3807C4.63812 66.5211 5.21638 63.6865 5.94598 60.8892C6.7097 57.9548 7.68495 55.0796 8.86406 52.2861C10.1172 49.3638 11.5845 46.538 13.254 43.8318L26.8167 43.8202Z" fill="#7085F5"/>
<path opacity="0.1" d="M32.4502 78.6347V110.801H82.8528V78.6347H32.4502ZM32.4502 111.794V139.417C32.7385 139.477 33.0245 139.535 33.3082 139.584C33.6942 139.659 34.0778 139.726 34.4708 139.784C34.5452 139.796 34.6219 139.808 34.7033 139.814C34.8567 139.84 35.0149 139.861 35.1683 139.882C35.5566 139.935 35.9426 139.98 36.3309 140.014C36.5146 140.033 36.7006 140.049 36.8866 140.063L37.3354 140.098C37.5795 140.117 37.8213 140.131 38.0608 140.138C38.2096 140.138 38.3584 140.152 38.5119 140.156C38.6282 140.156 38.7444 140.156 38.8653 140.156C38.9862 140.156 39.1583 140.156 39.3048 140.156C39.5048 140.156 39.7047 140.156 39.9024 140.156H40.1697C40.3697 140.156 40.5697 140.156 40.7673 140.138H40.7813C40.9185 140.138 41.058 140.138 41.1975 140.119C41.2362 140.121 41.275 140.121 41.3137 140.119C41.43 140.119 41.5462 140.119 41.6579 140.103H41.7392L42.5182 140.042C42.7739 140.019 43.032 139.989 43.2924 139.961L43.8226 139.898C45.9794 139.596 48.1122 139.142 50.2052 138.54C54.9067 137.229 59.5058 135.394 64.205 134.05C70.2807 132.318 76.9934 131.467 82.8645 133.585V111.794H32.4502ZM82.8528 42.8249V0.00227666C77.3346 -0.0575088 71.8314 0.587911 66.4767 1.92286C53.7139 5.12927 42.2624 12.0838 32.4502 20.966V42.8225H34.98V43.8154H32.4502V77.6419H82.8528V43.8177H45.3665V42.8249H82.8528ZM147.592 28.36C144.435 28.2484 141.296 27.2486 138.457 25.7047C133.028 22.7517 128.691 18.192 123.846 14.3439C113.778 6.32905 101.291 1.49271 88.4821 0.292922V42.8249H160.434L160.613 42.6365L147.592 28.36ZM154.147 27.1974L161.097 34.824V25.1978C158.77 25.4861 156.73 26.172 154.156 27.1881L154.147 27.1974ZM161.097 146.276V111.794H146.288C146.249 111.647 146.209 111.499 146.162 111.35C146.207 111.499 146.244 111.647 146.286 111.794H88.4914V136.731C89.0401 137.138 89.5819 137.566 90.119 138.001C90.698 138.466 91.2699 138.956 91.8443 139.438L92.4232 139.917C92.6999 140.149 92.9789 140.382 93.2603 140.6C93.8183 141.053 94.3818 141.499 94.9507 141.94C95.232 142.172 95.5204 142.381 95.8063 142.6C100.347 146.071 105.136 149.204 110.136 151.973C111.257 152.593 112.388 153.198 113.529 153.789C114.289 154.177 115.054 154.563 115.821 154.937C116.975 155.5 118.137 156.043 119.309 156.565C130.113 161.415 141.538 164.743 153.257 166.454C155.859 166.838 158.472 167.141 161.095 167.361V146.274H161.327L161.097 146.276ZM88.4914 43.8177V77.6419H161.106V43.8177H88.4914ZM88.4914 78.6347V110.801H161.106V78.6347H88.4914ZM166.743 25.1559V35.8935L175.613 26.1604C172.674 25.6861 169.717 25.3474 166.743 25.1443V25.1559ZM166.743 78.6464V110.801H237.37V78.6347L166.743 78.6464ZM237.111 148.829L237.36 111.794H166.743V167.73C171.292 167.922 175.848 167.867 180.391 167.568H180.47C182.641 167.431 184.801 167.233 186.951 166.972H186.999C198.47 165.637 209.685 162.645 220.296 158.088L237.111 148.829ZM250.988 83.9315C250.723 83.306 250.446 82.6852 250.165 82.0713C249.639 80.9087 249.084 79.7787 248.512 78.6487H243.001V110.801H256.933C256.926 101.696 254.622 92.3951 250.995 83.9198L250.988 83.9315ZM243.001 111.806V143.66C246.926 139.898 250.242 135.594 252.63 130.674C255.501 124.75 256.815 118.335 256.922 111.801L243.001 111.806ZM243.001 69.2736V77.6442H247.996C246.485 74.7627 244.82 71.9646 243.008 69.262L243.001 69.2736ZM195.103 31.4664C194.735 31.3269 194.368 31.1851 193.998 31.0479C190.099 29.608 186.115 28.4106 182.068 27.4625L168.493 42.3598L168.233 42.6365L168.407 42.8272H216.72C209.991 38.1956 202.737 34.3781 195.11 31.4548L195.103 31.4664ZM218.136 43.8293H167.733L166.743 44.7361V77.6419H175.425H175.439H237.379V61.7029C231.776 54.9264 225.309 48.9134 218.143 43.8177L218.136 43.8293Z" fill="#7085F5"/>
<path opacity="0.1" d="M26.8167 60.8797V77.6418H3.29297C3.29297 77.5442 3.30924 77.4442 3.31622 77.3465C3.33715 77.0791 3.35807 76.8117 3.38132 76.5467C3.4069 76.2351 3.4348 75.9212 3.46503 75.6166C3.49526 75.312 3.52781 74.94 3.56269 74.6028C3.59757 74.2657 3.63012 73.9239 3.66965 73.5867C3.70917 73.2496 3.74405 72.9124 3.7859 72.5776C3.82776 72.2428 3.86496 71.9033 3.90914 71.5685C3.94402 71.2895 3.98122 71.0128 4.01842 70.7338C4.0719 70.3408 4.1277 69.9455 4.18816 69.5549C4.18816 69.4968 4.20443 69.4363 4.21373 69.3805C4.63812 66.5209 5.21638 63.6863 5.94598 60.889L26.8167 60.8797Z" fill="#7085F5"/>
<path opacity="0.1" d="M3.21801 78.6371H26.8161V110.801H4.94561C4.88748 111.131 4.83167 111.464 4.77122 111.796H26.8161V137.736C26.7766 137.724 26.7417 137.71 26.7045 137.696C26.0814 137.45 25.4629 137.189 24.8444 136.91L24.4491 136.731C23.8291 136.438 23.209 136.128 22.589 135.801C22.3727 135.687 22.1565 135.569 21.9426 135.448C18.5004 133.52 15.3733 131.076 12.6698 128.203C12.5908 128.126 12.5163 128.045 12.4373 127.97C12.0606 127.561 11.6909 127.147 11.3328 126.724L10.9376 126.259C10.5144 125.74 10.1051 125.208 9.70755 124.668C9.64942 124.589 9.59361 124.51 9.53316 124.436C7.91612 122.194 6.57346 119.766 5.53387 117.205C5.50132 117.128 5.47342 117.044 5.44319 116.972C5.12387 116.151 4.84098 115.321 4.59451 114.484C4.48755 114.133 4.38524 113.787 4.29689 113.422C4.26433 113.315 4.23643 113.21 4.21085 113.105C2.89016 107.95 2.73438 102.596 2.73438 97.278C2.73438 96.6572 2.73438 96.034 2.73438 95.4179C2.73438 93.2671 2.75995 91.1024 2.79715 88.9399C2.79715 88.3796 2.82041 87.8215 2.83203 87.2589C2.86458 85.8312 2.91109 84.4036 2.97154 82.9759C2.98549 82.5783 3.00409 82.183 3.02502 81.7877C3.02502 81.5599 3.03665 81.332 3.0599 81.1041C3.1157 80.2764 3.16221 79.4556 3.21801 78.6371Z" fill="#7085F5"/>
<path opacity="0.1" d="M50.1935 48.6611V77.6419H32.4502V48.6611H34.98V38.8489H45.3642V48.6611H50.1935Z" fill="#7085F5"/>
<path opacity="0.1" d="M50.1932 78.6347H32.4521V110.799H50.1932V78.6347Z" fill="#7085F5"/>
<path opacity="0.1" d="M32.4502 111.796H50.1935V138.536C48.1005 139.137 45.9677 139.59 43.811 139.891L43.2808 139.956C43.0204 139.987 42.7623 140.012 42.5065 140.038C42.2508 140.063 41.9857 140.082 41.7276 140.098H41.6462C41.5346 140.098 41.4137 140.112 41.3044 140.115H41.1858C41.0463 140.115 40.9068 140.129 40.7673 140.133C40.5697 140.145 40.372 140.147 40.1697 140.149C40.0837 140.149 40.0023 140.149 39.9163 140.149C39.7163 140.149 39.5187 140.149 39.3187 140.149H38.8793C38.7607 140.149 38.6468 140.149 38.5235 140.149L38.0748 140.133C37.8423 140.133 37.5911 140.108 37.3493 140.091L36.9029 140.059L36.3472 140.008C35.9565 139.973 35.5682 139.929 35.1846 139.875L34.7196 139.81L34.487 139.777C34.0987 139.717 33.7151 139.652 33.3245 139.577C33.0385 139.529 32.7548 139.468 32.4665 139.41L32.4502 111.796Z" fill="#7085F5"/>
<path opacity="0.1" d="M161.106 45.2384H146.476V77.6397H161.106V45.2384Z" fill="#7085F5"/>
<path opacity="0.1" d="M161.11 78.6347V110.801H88.4922V96.9268H127.171V105.111H146.477V78.6347H161.11Z" fill="#7085F5"/>
<path opacity="0.1" d="M161.34 146.283H161.107V167.384C158.487 167.162 155.875 166.861 153.271 166.479C141.547 164.763 130.118 161.428 119.31 156.569C116.19 155.165 113.133 153.632 110.139 151.97C105.14 149.2 100.349 146.068 95.8072 142.598C94.6663 141.723 93.5401 140.829 92.4287 139.914C91.6591 139.28 90.8941 138.629 90.1198 137.996C89.5827 137.561 89.0409 137.134 88.4922 136.724V111.796H146.284C146.245 111.647 146.205 111.499 146.163 111.352C146.207 111.499 146.249 111.647 146.289 111.796H161.107V146.269C161.186 146.271 161.263 146.278 161.34 146.283Z" fill="#7085F5"/>
<path opacity="0.1" d="M199.263 42.8249H189.729V39.8626H194.003V31.0386C194.374 31.1735 194.743 31.3122 195.11 31.4548V39.8626H199.263V42.8249Z" fill="#7085F5"/>
<path opacity="0.1" d="M222.23 77.6421H175.429C175.429 77.6421 175.429 77.6421 175.445 77.6537L175.424 77.6421H166.742V45.2409H169.202V69.1901H180.444V55.0066H189.731V43.8202H199.264V55.0159H208.551V69.1994H222.23V77.6421Z" fill="#7085F5"/>
<path opacity="0.1" d="M166.742 78.6347V110.801H222.23V78.6347H166.742ZM237.292 148.664L237.369 123.203H222.23V111.81H166.742V167.73C171.291 167.921 175.848 167.867 180.391 167.568H180.47C182.64 167.431 184.8 167.233 186.95 166.972H186.999C198.469 165.637 209.685 162.645 220.295 158.088" fill="#7085F5"/>
<path opacity="0.1" d="M243.987 111.796H256.932C256.818 118.328 255.506 124.743 252.637 130.667C250.249 135.59 246.931 139.894 243.011 143.653V123.192H243.987V111.796Z" fill="#7085F5"/>
<path opacity="0.1" d="M256.938 110.801H243.986V83.9198H250.995C254.622 92.395 256.926 101.696 256.938 110.801Z" fill="#7085F5"/>
<path opacity="0.1" d="M161.108 54.2461H153.27V64.4047H161.108V54.2461Z" fill="#7085F5"/>
<path opacity="0.1" d="M161.108 75.3028H153.27V77.642H161.108V75.3028Z" fill="#7085F5"/>
<path opacity="0.1" d="M161.108 78.6347H153.27V85.4591H161.108V78.6347Z" fill="#7085F5"/>
<path opacity="0.1" d="M161.108 96.3595H153.27V106.518H161.108V96.3595Z" fill="#7085F5"/>
<path opacity="0.1" d="M161.108 117.416H153.27V127.575H161.108V117.416Z" fill="#7085F5"/>
<path opacity="0.1" d="M161.105 146.269C161.184 146.269 161.261 146.269 161.338 146.283H161.105V148.643H153.27V138.473H161.105V146.269Z" fill="#7085F5"/>
<path opacity="0.1" d="M161.105 159.525V167.372C158.486 167.151 155.874 166.849 153.27 166.468V159.525H161.105Z" fill="#7085F5"/>
<path opacity="0.1" d="M122.084 110.055H88.4922V110.801H122.084V110.055Z" fill="#7085F5"/>
<path opacity="0.1" d="M122.084 111.794H88.4922V114.654H122.084V111.794Z" fill="#7085F5"/>
<path opacity="0.1" d="M122.084 124.029H88.4922V128.628H122.084V124.029Z" fill="#7085F5"/>
<path opacity="0.1" d="M122.081 138.003V142.602H95.8069C94.666 141.731 93.5391 140.837 92.4261 139.919C91.6564 139.284 90.8938 138.633 90.1172 138.003H122.081Z" fill="#7085F5"/>
<path opacity="0.1" d="M122.081 151.975V156.57H119.307C116.19 155.164 113.133 153.63 110.139 151.968L122.081 151.975Z" fill="#7085F5"/>
<path opacity="0.1" d="M187.005 81.7528H180.393V88.3656H187.005V81.7528Z" fill="#7085F5"/>
<path opacity="0.1" d="M43.8266 50.9421H37.2139V57.5549H43.8266V50.9421Z" fill="#7085F5"/>
<path opacity="0.1" d="M43.8266 66.3021H37.2139V72.9148H43.8266V66.3021Z" fill="#7085F5"/>
<path opacity="0.1" d="M43.8266 81.6622H37.2139V88.275H43.8266V81.6622Z" fill="#7085F5"/>
<path opacity="0.1" d="M43.8266 97.0199H37.2139V103.633H43.8266V97.0199Z" fill="#7085F5"/>
<path opacity="0.1" d="M43.8266 112.38H37.2139V118.993H43.8266V112.38Z" fill="#7085F5"/>
<path opacity="0.1" d="M43.8266 127.74H37.2139V134.353H43.8266V127.74Z" fill="#7085F5"/>
<path opacity="0.1" d="M212.251 81.7528H205.638V88.3656H212.251V81.7528Z" fill="#7085F5"/>
<path opacity="0.1" d="M187.005 98.0639H180.393V104.677H187.005V98.0639Z" fill="#7085F5"/>
<path opacity="0.1" d="M212.251 98.0639H205.638V104.677H212.251V98.0639Z" fill="#7085F5"/>
<path opacity="0.1" d="M187.005 114.373H180.393V120.985H187.005V114.373Z" fill="#7085F5"/>
<path opacity="0.1" d="M212.251 114.373H205.638V120.985H212.251V114.373Z" fill="#7085F5"/>
<path opacity="0.1" d="M187.005 130.684H180.393V137.296H187.005V130.684Z" fill="#7085F5"/>
<path opacity="0.1" d="M212.251 130.684H205.638V137.296H212.251V130.684Z" fill="#7085F5"/>
<path opacity="0.1" d="M187.005 146.995H180.393V153.607H187.005V146.995Z" fill="#7085F5"/>
<path opacity="0.1" d="M212.251 146.995H205.638V153.607H212.251V146.995Z" fill="#7085F5"/>
<path opacity="0.1" d="M180.393 167.568V163.303H187.003V166.961L180.393 167.568Z" fill="#7085F5"/>
<path opacity="0.1" d="M4.18555 69.376V73.1591H26.8164V69.376H4.18555ZM6.44096 72.9219H4.59478V69.6085H6.45491L6.44096 72.9219ZM8.69404 72.9219H6.83391V69.6085H8.69404V72.9219ZM10.9425 72.9219H9.08234V69.6085H10.9425V72.9219ZM13.1956 72.9219H11.3378V69.6085H13.1979L13.1956 72.9219ZM15.4463 72.9219H13.5862V69.6085H15.4463V72.9219ZM17.6994 72.9219H15.8393V69.6085H17.6994V72.9219ZM19.9525 72.9219H18.0924V69.6085H19.9525V72.9219ZM22.2032 72.9219H20.3431V69.6085H22.2032V72.9219ZM24.454 72.9219H22.5939V69.6085H24.454V72.9219ZM26.7048 72.9219H24.8446V69.6085H26.7048V72.9219Z" fill="#7085F5"/>
<path opacity="0.1" d="M4.18555 80.3832V84.1662H26.8164V80.3832H4.18555ZM6.44096 83.9268H4.59478V80.6227H6.45491L6.44096 83.9268ZM8.69404 83.9268H6.83391V80.6227H8.69404V83.9268ZM10.9425 83.9268H9.08234V80.6227H10.9425V83.9268ZM13.1956 83.9268H11.3378V80.6227H13.1979L13.1956 83.9268ZM15.4463 83.9268H13.5862V80.6227H15.4463V83.9268ZM17.6994 83.9268H15.8393V80.6227H17.6994V83.9268ZM19.9525 83.9268H18.0924V80.6227H19.9525V83.9268ZM22.2032 83.9268H20.3431V80.6227H22.2032V83.9268ZM24.454 83.9268H22.5939V80.6227H24.454V83.9268ZM26.7048 83.9268H24.8446V80.6227H26.7048V83.9268Z" fill="#7085F5"/>
<path opacity="0.1" d="M4.18555 91.3953V95.1854H26.8164V91.3953H4.18555ZM6.44096 94.9389H4.59478V91.6324H6.45491L6.44096 94.9389ZM8.69404 94.9389H6.83391V91.6324H8.69404V94.9389ZM10.9425 94.9389H9.08234V91.6324H10.9425V94.9389ZM13.1956 94.9389H11.3378V91.6324H13.1979L13.1956 94.9389ZM15.4463 94.9389H13.5862V91.6324H15.4463V94.9389ZM17.6994 94.9389H15.8393V91.6324H17.6994V94.9389ZM19.9525 94.9389H18.0924V91.6324H19.9525V94.9389ZM22.2032 94.9389H20.3431V91.6324H22.2032V94.9389ZM24.454 94.9389H22.5939V91.6324H24.454V94.9389ZM26.7048 94.9389H24.8446V91.6324H26.7048V94.9389Z" fill="#7085F5"/>
<path opacity="0.1" d="M4.18555 102.407V106.186H26.8164V102.407H4.18555ZM6.44096 105.951H4.59478V102.642H6.45491L6.44096 105.951ZM8.69404 105.951H6.83391V102.642H8.69404V105.951ZM10.9425 105.951H9.08234V102.642H10.9425V105.951ZM13.1956 105.951H11.3378V102.642H13.1979L13.1956 105.951ZM15.4463 105.951H13.5862V102.642H15.4463V105.951ZM17.6994 105.951H15.8393V102.642H17.6994V105.951ZM19.9525 105.951H18.0924V102.642H19.9525V105.951ZM22.2032 105.951H20.3431V102.642H22.2032V105.951ZM24.454 105.951H22.5939V102.642H24.454V105.951ZM26.7048 105.951H24.8446V102.642H26.7048V105.951Z" fill="#7085F5"/>
<path opacity="0.1" d="M4.2832 113.417C4.37388 113.773 4.47619 114.128 4.58315 114.479V113.654H6.44328V116.96H5.44811C5.47834 117.037 5.50856 117.121 5.53879 117.193H26.8164V113.417H4.2832ZM8.70102 116.96H6.84089V113.654H8.70102V116.96ZM10.9495 116.96H9.08932V113.654H10.9495V116.96ZM13.2025 116.96H11.3378V113.654H13.1979L13.2025 116.96ZM15.4533 116.96H13.5932V113.654H15.4533V116.96ZM17.7064 116.96H15.8463V113.654H17.7064V116.96ZM19.9595 116.96H18.0993V113.654H19.9595V116.96ZM22.2102 116.96H20.3501V113.654H22.2102V116.96ZM24.461 116.96H22.6009V113.654H24.461V116.96ZM26.7118 116.96H24.8516V113.654H26.7118V116.96Z" fill="#7085F5"/>
<path opacity="0.1" d="M9.53809 124.429C9.59622 124.503 9.65202 124.587 9.71247 124.661H10.9425V126.249C11.075 126.408 11.2052 126.566 11.3401 126.715V124.652H13.2002V127.97H12.4469C12.5213 128.047 12.5934 128.128 12.6794 128.203H26.8234V124.429H9.53809ZM15.4463 127.97H13.5862V124.666H15.4463V127.97ZM17.6994 127.97H15.8393V124.666H17.6994V127.97ZM19.9525 127.97H18.0924V124.666H19.9525V127.97ZM22.2033 127.97H20.3431V124.666H22.2033V127.97ZM24.454 127.97H22.5939V124.666H24.454V127.97ZM26.7048 127.97H24.8447V124.666H26.7048V127.97Z" fill="#7085F5"/>
<path opacity="0.1" d="M21.9521 135.439C22.1637 135.56 22.38 135.671 22.5985 135.792V135.676H24.4587V136.722L24.854 136.906V135.676H26.7141V137.687C26.7498 137.705 26.7872 137.719 26.8257 137.729V135.439H21.9521Z" fill="#7085F5"/>
<path opacity="0.1" d="M175.429 77.642H175.443H175.429ZM161.106 146.267H161.339H161.106ZM146.162 111.35C146.206 111.499 146.244 111.648 146.286 111.794C146.248 111.648 146.209 111.499 146.162 111.35ZM175.429 77.635H175.443H175.429ZM34.9893 42.818V43.8108H45.3758V42.818H34.9893ZM161.106 146.267H161.339H161.106ZM146.162 111.35C146.206 111.499 146.244 111.648 146.286 111.794C146.248 111.648 146.209 111.499 146.162 111.35ZM175.429 77.635H175.443H175.429ZM161.106 146.26H161.339H161.106ZM146.162 111.35C146.206 111.499 146.244 111.648 146.286 111.794C146.248 111.648 146.209 111.499 146.162 111.35Z" fill="#7085F5"/>
<path d="M107.329 88.2795C107.329 88.2795 106.413 88.1516 106.413 86.8169C106.413 85.4823 105.757 82.9897 105.757 82.9897C105.757 82.9781 105.19 78.6486 104.406 77.9604C103.623 77.2721 102.616 73.231 102.616 73.231C102.616 73.231 102.444 71.0384 102.093 70.5664C101.742 70.0943 101.267 68.9387 100.568 67.2902C99.8676 65.6417 96.9496 64.5 96.9496 64.5C96.9496 64.5 91.6738 61.4401 90.1787 60.4426C90.0428 60.3606 89.9158 60.2648 89.7997 60.1566C89.5393 59.8148 88.4046 59.8078 88.4046 59.8078C88.286 59.0591 88.1721 58.1988 88.1349 57.4199C88.1349 57.3362 88.1349 57.2525 88.1232 57.1688C89.7903 56.1833 91.0461 54.6296 91.6598 52.7928C91.6877 52.7045 91.711 52.6114 91.7365 52.5231C91.8364 52.4902 91.9284 52.4368 92.0064 52.3663C92.0845 52.2959 92.147 52.2099 92.1899 52.1139C92.3248 51.8139 92.3271 51.4628 92.4945 51.1838C92.6899 50.8536 93.0619 50.6769 93.3548 50.4281C94.0942 49.8003 94.2849 48.7424 94.25 47.7798C94.2268 47.0008 94.1012 46.2149 94.1501 45.4406L94.164 45.2453C94.178 45.1291 94.1942 45.0128 94.2152 44.9012C94.3291 44.3246 94.5779 43.7805 94.7174 43.2085C94.8569 42.6365 94.8708 41.9924 94.5453 41.4995C94.0687 40.7764 93.0758 40.6322 92.2039 40.5578C91.2157 40.4741 90.3321 40.5834 89.6997 39.7626C89.4037 39.3336 89.0707 38.9314 88.7045 38.5605C88.5743 38.4396 87.3094 37.6676 87.3094 37.6165C86.0749 37.0447 84.6756 36.9374 83.3683 37.3142C82.7126 37.5049 82.0941 37.8164 81.4291 37.9722C79.9945 38.3117 78.3436 37.9443 77.1252 38.7651C76.4463 39.2301 76.0394 39.9695 75.658 40.6903C75.348 41.284 75.0333 41.8769 74.714 42.4691C74.2002 43.4433 73.677 44.4338 73.4608 45.5127C73.4153 45.7475 73.3873 45.9853 73.3771 46.2242V46.2359C73.3771 46.3219 73.3771 46.4079 73.3771 46.4939V46.6032C73.3771 46.6846 73.3771 46.7637 73.391 46.8357C73.405 46.9078 73.4026 46.9311 73.4096 46.9799C73.4166 47.0287 73.4282 47.138 73.4422 47.2124C73.4561 47.2868 73.484 47.417 73.5119 47.5193C73.5235 47.5635 73.5398 47.6054 73.5538 47.6472C73.577 47.7263 73.6049 47.803 73.6351 47.8797C73.6514 47.9193 73.6677 47.9611 73.6863 48.0006C73.7212 48.082 73.763 48.1611 73.8049 48.2332C73.8235 48.2657 73.8374 48.2959 73.856 48.3262C73.9209 48.4343 73.9923 48.5384 74.0699 48.6377C74.5675 49.2586 75.3 49.6538 75.8417 50.2351C75.8417 50.2584 75.8417 50.2816 75.8417 50.3026C75.8417 50.3677 75.8417 50.4304 75.8417 50.4955C75.8705 51.7919 76.2155 53.0617 76.8469 54.1943C77.4782 55.327 78.3768 56.2882 79.4643 56.9944C79.4643 57.0827 79.476 57.1734 79.4806 57.2618C79.5259 57.952 79.5174 58.6446 79.455 59.3335C79.3603 59.222 79.2418 59.1332 79.1082 59.0736C78.9746 59.014 78.8293 58.9852 78.6831 58.9894C78.5832 58.9845 78.4831 58.9931 78.3854 59.0149L78.3645 58.9987V59.0196C77.853 59.1452 77.2229 59.6776 76.6206 61.1913C76.6206 61.1913 74.7884 63.256 73.3933 63.17C71.9982 63.084 68.4663 65.3185 68.4663 65.3185C68.4663 65.3185 65.0204 67.5553 64.281 69.8339C63.8677 71.1261 63.3722 72.3904 62.7976 73.6193L58.5379 82.3968L57.752 89.3607C57.752 89.3607 58.1868 92.4578 58.1007 92.9298C58.0147 93.4018 59.8888 97.6592 59.8888 97.6592C59.8888 97.6592 66.0807 108.539 68.6105 109.097L68.7918 108.969C68.9001 109.025 69.0149 109.068 69.1336 109.097L69.6545 108.729C69.6857 109.139 69.6725 109.55 69.6149 109.957C69.2662 111.031 69.7451 118.042 70.3543 119.416C70.9635 120.79 70.7473 138.808 70.7473 138.808L70.6613 140.398C70.6613 140.398 70.6613 140.449 70.6822 140.537L70.6613 140.914L70.724 140.947C70.7892 141.451 70.768 141.963 70.6613 142.46C70.4427 143.158 70.3543 145.13 70.3543 145.13C70.3543 145.13 68.6128 156.263 69.4382 158.499C70.2637 160.736 70.9659 163.187 70.9659 163.187C70.9659 163.187 71.8378 165.977 71.0077 166.454C70.1776 166.93 67.8176 167.73 68.3035 168.893C68.7453 169.967 70.4218 172.846 70.6706 173.267L70.6496 173.487L70.3078 177.191C70.3632 177.68 70.4958 178.158 70.7008 178.605C71.0751 179.412 71.8029 180.249 73.1864 180.158C73.4189 180.142 73.6886 180.114 73.949 180.079C76.4811 179.74 79.5992 178.61 79.5992 178.61C79.4373 178.507 79.2889 178.384 79.1574 178.245C79.0329 178.124 78.9343 177.979 78.8676 177.82C78.8008 177.66 78.7673 177.488 78.7691 177.315C78.8063 176.64 77.5437 173.427 77.2298 172.636C77.181 172.522 77.1554 172.457 77.1554 172.457C77.1554 172.457 80.034 169.449 79.555 166.782C79.555 166.782 76.3695 164.922 77.4182 163.901C78.4668 162.88 80.3409 159.948 80.3409 159.948C80.3409 159.948 80.4269 148.985 80.3409 147.348C80.2512 146.212 80.3051 145.069 80.5013 143.946C80.5362 143.776 80.5781 143.611 80.6223 143.449C82.0725 143.665 83.5365 143.776 85.0029 143.781C85.5377 143.781 86.0817 143.781 86.6305 143.749C86.6305 143.904 86.6375 144.071 86.6514 144.251C86.7723 146.967 86.9979 151.729 87.1815 153.498C87.442 156.035 88.8812 162.871 88.8812 162.871C88.8812 162.871 86.1352 164.633 89.3602 168.977C89.3602 168.977 89.3602 170.551 89.1463 170.779C88.9179 171.523 88.7339 172.281 88.5952 173.048C88.4604 173.866 88.4046 174.694 88.6231 175.124C89.1463 176.152 92.2853 176.068 92.2853 176.068L92.362 176.054C92.9546 175.993 93.5535 176.05 94.1239 176.222C94.6942 176.394 95.2248 176.678 95.6847 177.057C96.8775 178.014 101.405 177.594 103.855 177.289C104.816 177.168 105.457 177.057 105.457 177.057C105.488 176.948 105.499 176.834 105.49 176.722C105.464 176.119 104.992 174.799 101.793 173.62C101.793 173.62 98.7841 171.597 98.826 169.835H98.7632H98.4144C98.6678 169.821 98.8306 169.835 98.8306 169.835C98.8306 169.835 97.6518 165.533 98.1331 165.184C98.6144 164.835 97.1728 160.069 97.1728 160.069C97.1728 160.069 96.3473 152.07 96.3032 151.51C96.305 151.029 96.3779 150.551 96.5194 150.092L96.3032 145.706C96.3032 145.706 96.2613 144.248 96.3032 143.774C96.2961 143.362 96.2627 142.952 96.2032 142.544C96.1822 142.381 96.1613 142.212 96.1381 142.044C97.2658 141.758 97.9982 141.493 97.9982 141.493L97.868 126.228C98.826 124.368 99.0027 120.288 98.998 117.393C98.998 115.533 98.9143 114.156 98.9143 114.156L100.223 112.019C100.223 112.019 100.526 109.462 100.047 108.901C99.8351 108.648 99.9304 108.385 100.105 108.169C100.195 108.097 100.291 108.032 100.391 107.974C100.391 107.974 100.377 107.953 100.361 107.922C100.452 107.846 100.549 107.777 100.651 107.715C100.651 107.715 100.186 106.995 100.602 106.69C100.993 106.955 101.342 107.155 101.607 107.318C101.588 107.488 101.57 107.585 101.57 107.585L101.681 107.353C101.937 107.497 102.093 107.585 102.093 107.585C102.093 107.585 104.144 103.5 104.099 102.898C104.055 102.296 105.495 99.7588 105.495 99.7588C105.495 99.7588 105.669 98.4265 106.455 97.8684C107.241 97.3104 107.064 93.2669 107.064 93.2669C107.064 93.2669 107.283 91.1603 107.806 90.3C108.329 89.4397 107.329 88.2795 107.329 88.2795ZM68.0896 86.4868L68.1292 87.461C67.8966 87.0866 67.7292 86.8169 67.7292 86.8169L68.0896 86.4868Z" fill="url(#paint0_linear)"/>
<path d="M102.206 105.821L101.703 107.96C101.703 107.96 97.6809 105.907 96.9554 103.298C96.23 100.689 98.1692 99.6983 98.1692 99.6983L101.917 101.286L102.206 105.821Z" fill="white"/>
<path opacity="0.1" d="M102.206 105.821L101.703 107.96C101.703 107.96 97.6809 105.907 96.9554 103.298C96.23 100.689 98.1692 99.6983 98.1692 99.6983L101.917 101.286L102.206 105.821Z" fill="black"/>
<path d="M79.63 178.624C79.63 178.624 75.9097 179.991 73.352 180.163C71.9941 180.254 71.2803 179.421 70.9129 178.619C70.7123 178.173 70.5828 177.699 70.5293 177.212L70.8618 173.527L71.0385 171.565L76.4724 170.153L77.2421 172.506L77.3141 172.685C77.6234 173.471 78.8627 176.668 78.8255 177.336C78.824 177.507 78.857 177.676 78.9225 177.834C78.988 177.992 79.0847 178.135 79.2068 178.254C79.3316 178.395 79.4738 178.519 79.63 178.624Z" fill="white"/>
<path d="M105.042 176.75C105.052 176.862 105.041 176.974 105.01 177.082C105.01 177.082 97.053 178.41 95.4254 177.082C94.9665 176.694 94.4316 176.407 93.855 176.238C93.2784 176.069 92.6728 176.022 92.0771 176.101C92.0771 176.101 88.9986 176.185 88.4848 175.171C88.2708 174.746 88.3266 173.92 88.4592 173.106C88.5944 172.344 88.7745 171.59 88.9986 170.848L89.1218 170.751L89.8543 170.163L98.4295 169.909H98.4946C98.4527 171.662 101.406 173.674 101.406 173.674C104.542 174.836 105.005 176.15 105.042 176.75Z" fill="white"/>
<path opacity="0.1" d="M105.042 176.75C105.05 176.862 105.038 176.974 105.007 177.082C105.007 177.082 97.0528 178.41 95.4251 177.082C94.9665 176.695 94.432 176.407 93.8558 176.238C93.2796 176.069 92.6745 176.023 92.0792 176.101C92.0792 176.101 88.9984 176.185 88.4868 175.171C88.2729 174.743 88.3264 173.92 88.4589 173.106C89.6448 173.225 91.5165 173.52 92.2513 174.225C93.3627 175.297 95.2461 176.366 96.4017 176.45C97.3062 176.508 102.717 176.68 105.042 176.75Z" fill="black"/>
<path opacity="0.1" d="M79.6298 178.624C79.6298 178.624 75.9095 179.991 73.3518 180.163C71.9939 180.254 71.2801 179.421 70.915 178.617C71.8614 178.935 73.1751 179.27 73.8657 178.963C74.6842 178.6 77.586 178.366 79.2136 178.266C79.3375 178.401 79.4772 178.521 79.6298 178.624Z" fill="black"/>
<path d="M85.1504 68.4458C82.0812 67.253 78.1331 63.3118 79.119 61.4703C79.3379 61.0056 79.468 60.504 79.5026 59.9915C79.566 59.2957 79.5754 58.5961 79.5305 57.8989C79.4614 56.757 79.324 55.6203 79.119 54.4948C79.119 54.4948 88.7009 54.7111 88.1429 56.1224C87.9801 56.5363 87.9545 57.2548 87.9987 58.0593C88.0429 58.8638 88.1591 59.7729 88.28 60.5426C88.4475 61.5982 88.6149 62.4027 88.6149 62.4027C88.6149 62.4027 88.0289 63.2235 87.6848 63.2677C87.3407 63.3118 89.5542 70.1455 85.1504 68.4458Z" fill="#CF6F80"/>
<path opacity="0.1" d="M77.3069 172.685L77.2348 172.764C74.3702 169.3 70.9056 173.618 70.9056 173.618L70.8545 173.527L71.0312 171.565L76.4652 170.153L77.2348 172.506L77.3069 172.685Z" fill="black"/>
<path opacity="0.1" d="M98.4959 170.153C98.4959 170.153 96.4033 170.109 95.2872 171.095C94.1711 172.081 88.7767 171.309 89.0092 171.095C89.0781 170.989 89.1197 170.868 89.1302 170.742L89.8626 170.153L98.4378 169.9C98.4703 170.056 98.4959 170.153 98.4959 170.153Z" fill="black"/>
<path d="M80.8718 142.947C80.7159 143.332 80.5975 143.731 80.5183 144.139C80.3244 145.257 80.2705 146.394 80.3579 147.525C80.4439 149.152 80.3579 160.06 80.3579 160.06C80.3579 160.06 78.5187 162.969 77.4933 163.994C76.4679 165.019 79.5859 166.861 79.5859 166.861C80.051 169.512 77.2329 172.506 77.2329 172.506C74.3683 169.042 70.9038 173.362 70.9038 173.362C70.9038 173.362 69.0204 170.107 68.5507 168.944C68.081 167.782 70.3899 166.977 71.2014 166.505C72.0129 166.033 71.1619 163.25 71.1619 163.25C71.1619 163.25 70.4759 160.811 69.6621 158.586C68.8483 156.36 70.5596 145.283 70.5596 145.283C70.5596 145.283 70.648 143.316 70.8596 142.63C70.9663 142.135 70.9876 141.626 70.9224 141.124C70.9084 140.954 70.8921 140.812 70.8805 140.717C70.8689 140.621 70.8596 140.577 70.8596 140.577L70.8921 140.521L72.0547 138.354C72.0547 138.354 81.4298 141.582 80.8718 142.947Z" fill="#7085F5"/>
<path d="M98.4965 169.898C98.4965 169.898 96.4038 169.853 95.2877 170.828C94.1716 171.802 88.7772 171.042 89.0097 170.828C89.2423 170.614 89.2237 169.03 89.2237 169.03C86.0591 164.71 88.7586 162.957 88.7586 162.957C88.7586 162.957 87.3449 156.156 87.0892 153.633C86.9101 151.871 86.6892 147.134 86.5706 144.43C86.5195 143.267 86.4893 142.468 86.4893 142.468L89.0749 141.947L89.4074 141.879L95.6435 140.628C95.6435 140.628 95.8155 141.791 95.9318 142.742C95.9898 143.148 96.0224 143.557 96.0294 143.967C95.9876 144.432 96.0294 145.888 96.0294 145.888L96.241 150.252C96.1028 150.71 96.0315 151.185 96.0294 151.664C96.0713 152.219 96.8828 160.176 96.8828 160.176C96.8828 160.176 98.2942 164.924 97.8129 165.266C97.3315 165.608 98.4965 169.898 98.4965 169.898Z" fill="#7085F5"/>
<path opacity="0.1" d="M88.1422 56.1224C87.9794 56.5363 87.9538 57.2548 87.998 58.0593C86.7145 58.8321 85.2391 59.2273 83.7411 59.1993C82.2431 59.1714 80.7835 58.7214 79.5297 57.9012C79.4607 56.7585 79.3233 55.621 79.1182 54.4948C79.1182 54.4948 88.7002 54.7064 88.1422 56.1224Z" fill="black"/>
<path d="M91.8464 50.9839C91.8483 51.8218 91.7164 52.6546 91.4558 53.4509C90.8733 55.2352 89.6787 56.756 88.0833 57.7447C86.4879 58.7334 84.5943 59.1263 82.7372 58.8539C80.8802 58.5815 79.1792 57.6613 77.9349 56.2561C76.6907 54.8508 75.9833 53.051 75.9377 51.1746C75.9377 51.1095 75.9377 51.049 75.9377 50.9839C75.9196 49.9277 76.1121 48.8785 76.5038 47.8975C76.8955 46.9165 77.4786 46.0232 78.2191 45.2699C78.9596 44.5166 79.8427 43.9183 80.8169 43.5099C81.7911 43.1015 82.8369 42.8912 83.8932 42.8912C84.9496 42.8912 85.9953 43.1015 86.9695 43.5099C87.9437 43.9183 88.8268 44.5166 89.5673 45.2699C90.3079 46.0232 90.891 46.9165 91.2827 47.8975C91.6744 48.8785 91.8668 49.9277 91.8488 50.9839H91.8464Z" fill="#CF6F80"/>
<path opacity="0.1" d="M85.1504 68.4458C82.0812 67.253 78.1331 63.3119 79.119 61.4703C79.3379 61.0056 79.468 60.5041 79.5026 59.9915L83.7042 63.4444L86.3037 65.5766L88.28 60.5449C88.4475 61.6005 88.6149 62.405 88.6149 62.405C88.6149 62.405 88.0289 63.2258 87.6848 63.27C87.3407 63.3142 89.5542 70.1455 85.1504 68.4458Z" fill="black"/>
<path d="M96.0157 83.7059L92.507 142.649L87.9311 142.949L76.082 108.771L78.0259 68.1948L78.4351 59.6219L83.7039 63.949L86.3058 66.0812L88.3403 60.903L92.1234 64.2001L96.0157 83.7059Z" fill="#7085F5"/>
<path opacity="0.1" d="M80.8721 142.946C80.7163 143.332 80.5979 143.731 80.5187 144.139C77.189 143.625 73.9552 142.615 70.9251 141.142L70.8623 141.11L70.8832 140.735L70.8949 140.54L72.0574 138.373C72.0574 138.373 81.4302 141.582 80.8721 142.946Z" fill="black"/>
<path opacity="0.1" d="M89.1286 144.149C88.2774 144.293 87.4189 144.391 86.557 144.442C86.5058 143.279 86.4756 142.479 86.4756 142.479L89.0612 141.958L89.1286 144.149Z" fill="black"/>
<path opacity="0.1" d="M95.917 142.753C94.2638 143.184 91.7108 143.667 89.4251 143.365L89.3926 141.891L95.6287 140.64C95.6287 140.64 95.8007 141.791 95.917 142.753Z" fill="black"/>
<path opacity="0.1" d="M89.3834 143.635C79.8503 145.262 71.1193 140.596 71.1193 140.596L71.203 139.015C71.203 139.015 71.4192 121.09 70.8193 119.716C70.2194 118.342 69.7521 111.373 70.0915 110.303C70.431 109.234 68.8522 93.1949 68.8522 93.1949L68.5965 86.6844L59.2354 82.8921L63.4206 74.1681C63.9859 72.9449 64.4721 71.6868 64.8762 70.4013C65.604 68.1366 68.9824 65.9114 68.9824 65.9114C68.9824 65.9114 72.4469 63.6886 73.8165 63.7723C75.186 63.856 76.981 61.8052 76.981 61.8052C78.3064 58.4267 79.5061 59.9567 79.5061 59.9567C79.5061 60.1171 79.5061 59.9567 79.441 60.4566C78.976 64.1652 86.9606 75.884 87.0746 76.091L87.8349 94.6132L88.6045 118.053L89.3834 143.635Z" fill="black"/>
<path d="M89.1278 143.635C79.5946 145.262 70.8612 140.596 70.8612 140.596L70.9473 139.015C70.9473 139.015 71.1635 121.09 70.5613 119.716C69.9591 118.342 69.494 111.373 69.8358 110.303C70.1776 109.234 68.5965 93.1949 68.5965 93.1949L68.3384 86.6844L58.9727 82.8781L63.158 74.1541C63.722 72.9304 64.2082 71.6723 64.6135 70.3873C65.339 68.1226 68.7198 65.8974 68.7198 65.8974C68.7198 65.8974 72.1843 63.6746 73.5515 63.7583C74.9187 63.842 76.716 61.7912 76.716 61.7912C78.0437 58.4127 79.5062 59.9427 79.5062 59.9427C79.5062 60.1031 79.3667 60.1752 79.4411 60.4426C80.4642 64.0396 86.7049 75.8701 86.8189 76.077L87.5885 94.5993L88.3581 118.039L89.1278 143.635Z" fill="white"/>
<path opacity="0.1" d="M86.5595 76.6048C85.5341 76.177 80.1025 69.9758 80.1025 69.9758V68.5644C79.9049 68.0994 78.7307 68.383 77.7773 68.7085L78.1866 60.1357L78.6516 60.5217C79.67 64.1164 86.4409 76.3978 86.5595 76.6048Z" fill="black"/>
<path d="M86.8167 76.091C85.789 75.6632 80.3574 69.4619 80.3574 69.4619V68.0506C80.1598 67.5855 78.9855 67.8692 78.0322 68.1947L78.4438 59.6219L78.9088 60.0078C79.9296 63.6025 86.7028 75.8864 86.8167 76.091Z" fill="white"/>
<path opacity="0.1" d="M71.1198 107.018C71.2477 107.018 77.7489 106.335 77.7489 106.335C77.7489 106.335 81.6854 114.075 81.4273 115.958C81.1693 117.842 80.7019 119.509 79.1185 119.214C77.535 118.918 70.5967 119.446 70.5967 119.446L71.1198 107.018Z" fill="black"/>
<path d="M70.862 106.504C70.9899 106.504 77.4911 105.821 77.4911 105.821C77.4911 105.821 81.4253 113.563 81.1695 115.444C80.9138 117.325 80.4417 118.995 78.8606 118.7C77.2795 118.404 70.3389 118.932 70.3389 118.932L70.862 106.504Z" fill="white"/>
<path d="M75.7612 102.87C75.7612 102.87 81.7276 106.076 81.8555 107.055C81.9834 108.034 78.8188 106.628 78.1352 106.458C77.6853 106.349 77.2273 106.278 76.7657 106.244L72.2061 106.367L75.7612 102.87Z" fill="#CF6F80"/>
<path opacity="0.1" d="M84.8944 77.0047C85.2411 77.0047 85.5221 76.7237 85.5221 76.3769C85.5221 76.0302 85.2411 75.7492 84.8944 75.7492C84.5477 75.7492 84.2666 76.0302 84.2666 76.3769C84.2666 76.7237 84.5477 77.0047 84.8944 77.0047Z" fill="black"/>
<path d="M84.8944 76.7491C85.2411 76.7491 85.5221 76.468 85.5221 76.1213C85.5221 75.7746 85.2411 75.4935 84.8944 75.4935C84.5477 75.4935 84.2666 75.7746 84.2666 76.1213C84.2666 76.468 84.5477 76.7491 84.8944 76.7491Z" fill="#3F3D56"/>
<path opacity="0.1" d="M86.0487 104.181C86.3955 104.181 86.6766 103.9 86.6766 103.554C86.6766 103.207 86.3955 102.926 86.0487 102.926C85.702 102.926 85.4209 103.207 85.4209 103.554C85.4209 103.9 85.702 104.181 86.0487 104.181Z" fill="black"/>
<path d="M86.0487 103.923C86.3955 103.923 86.6766 103.642 86.6766 103.296C86.6766 102.949 86.3955 102.668 86.0487 102.668C85.702 102.668 85.4209 102.949 85.4209 103.296C85.4209 103.642 85.702 103.923 86.0487 103.923Z" fill="#3F3D56"/>
<path opacity="0.1" d="M85.5203 90.593C85.867 90.593 86.1481 90.312 86.1481 89.9652C86.1481 89.6185 85.867 89.3374 85.5203 89.3374C85.1736 89.3374 84.8926 89.6185 84.8926 89.9652C84.8926 90.312 85.1736 90.593 85.5203 90.593Z" fill="black"/>
<path d="M85.5203 90.3374C85.867 90.3374 86.1481 90.0564 86.1481 89.7097C86.1481 89.363 85.867 89.0819 85.5203 89.0819C85.1736 89.0819 84.8926 89.363 84.8926 89.7097C84.8926 90.0564 85.1736 90.3374 85.5203 90.3374Z" fill="#3F3D56"/>
<path d="M99.9906 106.113C99.9906 106.113 100.418 106.755 99.9906 107.055C99.5627 107.355 100.032 108.081 100.032 108.081C100.032 108.081 98.9652 108.706 99.4348 109.269C99.9045 109.831 99.6069 112.373 99.6069 112.373L98.3234 114.498C98.3234 114.498 98.4001 115.868 98.4048 117.718C98.4048 120.606 98.2351 124.666 97.2957 126.517L97.4259 141.702C97.4259 141.702 92.9313 143.344 89.1692 142.844L88.6112 118.476C88.6112 118.476 89.425 104.658 89.7249 102.007C89.9005 100.631 89.972 99.2437 89.9389 97.8568C89.9389 97.8568 89.811 93.7087 89.3808 91.7835C89.3808 91.7835 88.9158 83.4431 88.8693 81.1342C88.8484 80.0298 88.9065 76.8071 88.9716 73.7425C89.0437 70.392 89.1251 67.2321 89.1251 67.2321L88.2764 60.517C88.2764 60.517 89.1251 60.4309 89.3808 60.7727C89.4954 60.8798 89.62 60.9755 89.7528 61.0587C91.2177 62.0493 96.3935 65.0952 96.3935 65.0952C96.3935 65.0952 99.2581 66.2346 99.944 67.8668C100.63 69.4991 101.107 70.657 101.439 71.1221C101.772 71.5871 101.953 73.7727 101.953 73.7727C101.953 73.7727 102.939 77.7953 103.708 78.4766C104.478 79.1578 105.041 83.4919 105.041 83.4919L98.2397 88.8398C98.2397 88.8398 97.6421 97.7359 97.5143 98.08C97.3864 98.4242 99.9906 106.113 99.9906 106.113Z" fill="white"/>
<path d="M100.249 106.114C100.249 106.114 100.675 106.755 100.249 107.055C99.8238 107.355 100.289 108.081 100.289 108.081C100.289 108.081 99.2286 108.713 99.6936 109.276C100.159 109.839 99.8657 112.38 99.8657 112.38L98.5822 114.505C98.5822 114.505 98.6589 115.875 98.6659 117.726C98.6659 120.613 98.4962 124.673 97.5568 126.524L97.6847 141.71C97.6847 141.71 93.1831 143.351 89.4257 142.851L88.8699 118.484C88.8699 118.484 89.6837 104.665 89.9837 102.014C90.1594 100.638 90.2302 99.2508 90.1953 97.8639C90.1953 97.8639 90.0674 93.7159 89.6396 91.7906C89.6396 91.7906 89.1745 83.4503 89.1257 81.1414C89.1048 80.0369 89.1652 76.8142 89.228 73.7497C89.3001 70.3991 89.3815 67.2392 89.3815 67.2392L88.2607 60.4334C88.2607 60.4334 89.3815 60.4334 89.6396 60.7799C89.7531 60.8882 89.8778 60.984 90.0116 61.0659C91.4765 62.0564 96.6546 65.1024 96.6546 65.1024C96.6546 65.1024 99.5169 66.2417 100.203 67.874C100.889 69.5062 101.365 70.6642 101.7 71.1292C102.035 71.5942 102.212 73.7799 102.212 73.7799C102.212 73.7799 103.198 77.8024 103.967 78.4837C104.737 79.165 105.293 83.4898 105.293 83.4898L98.4915 88.8377C98.4915 88.8377 97.8939 97.7337 97.7637 98.0779C97.6335 98.422 100.249 106.114 100.249 106.114Z" fill="white"/>
<path opacity="0.1" d="M92.1039 69.2132L92.7177 71.0036L89.4858 74.2588C89.5579 70.9106 89.6393 67.7484 89.6393 67.7484L88.5186 60.9426C88.5186 60.9426 89.6393 60.9426 89.8974 61.2891C90.0105 61.3971 90.1353 61.4922 90.2694 61.5727L93.0177 69.5015L92.1039 69.2132Z" fill="black"/>
<path d="M91.8462 68.6993L92.4623 70.4897L89.2303 73.7449C89.3024 70.3943 89.3838 67.2344 89.3838 67.2344L88.2607 60.4286C88.2607 60.4286 89.3838 60.4287 89.6396 60.7751C89.7536 60.8827 89.8783 60.9786 90.0116 61.0611L92.7623 68.9876L91.8462 68.6993Z" fill="white"/>
<path opacity="0.1" d="M91.8464 50.9839C91.8483 51.8218 91.7164 52.6546 91.4558 53.4509C91.4119 53.4578 91.367 53.4557 91.3239 53.445C91.2808 53.4342 91.2402 53.4148 91.2047 53.3881C91.1442 51.2955 90.1142 49.3307 88.847 47.6589C88.4912 47.1542 88.0599 46.7071 87.5681 46.3336C87.071 45.9602 86.4526 45.7853 85.8336 45.843C85.136 45.9383 84.5199 46.4126 83.8153 46.4731C82.8853 46.5498 82.0529 45.9057 81.1298 45.8732C80.7545 45.8768 80.3843 45.9603 80.0439 46.1183C79.7035 46.2763 79.4007 46.505 79.1557 46.7893C78.6708 47.363 78.3105 48.0313 78.0978 48.7517C77.7322 49.8442 77.5331 50.9855 77.5072 52.1372C77.4955 52.7882 77.4328 53.6044 76.8282 53.8415C76.8737 53.3627 76.8193 52.8797 76.6684 52.423C76.5175 51.9663 76.2735 51.546 75.9516 51.1885L75.9377 51.1746C75.9377 51.1095 75.9377 51.049 75.9377 50.9839C75.9196 49.9277 76.1121 48.8785 76.5038 47.8975C76.8955 46.9165 77.4786 46.0232 78.2191 45.2699C78.9596 44.5166 79.8427 43.9183 80.8169 43.5099C81.7911 43.1015 82.8369 42.8912 83.8932 42.8912C84.9496 42.8912 85.9953 43.1015 86.9695 43.5099C87.9437 43.9183 88.8268 44.5166 89.5673 45.2699C90.3079 46.0232 90.891 46.9165 91.2827 47.8975C91.6744 48.8785 91.8668 49.9277 91.8488 50.9839H91.8464Z" fill="black"/>
<path d="M87.1871 38.3512C85.9788 37.7829 84.6046 37.6754 83.3227 38.0489C82.6786 38.2396 82.0717 38.5489 81.4184 38.7046C80.0233 39.0418 78.3956 38.6767 77.1982 39.4929C76.5332 39.9579 76.1333 40.6927 75.7612 41.4065L74.8312 43.1783C74.3243 44.1478 73.8127 45.1337 73.6012 46.201C73.3896 47.2682 73.5175 48.4633 74.1941 49.3213C74.687 49.9468 75.4148 50.3398 75.9496 50.928C76.27 51.2858 76.513 51.706 76.6634 52.1621C76.8139 52.6182 76.8685 53.1005 76.8238 53.5787C77.4307 53.3462 77.4888 52.5277 77.5028 51.8767C77.5287 50.725 77.7278 49.5837 78.0934 48.4912C78.3056 47.7706 78.6659 47.1022 79.1513 46.5288C79.3965 46.2448 79.6993 46.0162 80.0397 45.8582C80.3801 45.7003 80.7502 45.6166 81.1254 45.6127C82.0555 45.6453 82.8902 46.287 83.811 46.2103C84.5085 46.1521 85.127 45.6755 85.8292 45.5825C86.4483 45.5239 87.067 45.6989 87.5638 46.0731C88.0553 46.4461 88.486 46.8932 88.8403 47.3984C90.1098 49.0702 91.1399 51.0303 91.2003 53.1276C91.4631 53.3206 91.8421 53.0695 91.9723 52.7719C92.1025 52.4743 92.1071 52.1255 92.2722 51.8418C92.4629 51.514 92.8279 51.3396 93.1139 51.0931C93.8394 50.4676 94.0207 49.4143 93.9928 48.4587C93.9649 47.5031 93.7789 46.5335 93.9603 45.5941C94.0696 45.0175 94.316 44.478 94.4509 43.9084C94.5858 43.3387 94.602 42.6993 94.2835 42.2087C93.8185 41.4879 92.8396 41.346 91.9862 41.2786C91.0166 41.1949 90.1493 41.3018 89.5309 40.4857C89.2405 40.0598 88.9138 39.6599 88.5543 39.2906C88.431 39.1697 87.1871 38.4024 87.1871 38.3512Z" fill="#512E4E"/>
<path opacity="0.1" d="M61.9143 87.3844L59.4845 82.8921L58.7148 89.8235C58.7148 89.8235 59.1427 92.902 59.0566 93.374C58.9706 93.846 60.8098 98.0778 60.8098 98.0778C60.8098 98.0778 66.8855 108.899 69.3665 109.457L77.7487 103.468L75.5258 100.645C75.5258 100.645 74.7562 100.345 74.5632 100.645C74.5632 100.645 70.436 93.5437 70.0082 93.0299C69.5804 92.516 69.6641 91.4906 69.6641 91.4906C69.6641 91.4906 69.0223 90.807 69.2362 90.1653C69.4502 89.5235 67.9969 87.2983 67.9969 87.2983L69.3223 86.059L61.9143 87.3844Z" fill="black"/>
<path d="M59.6125 82.3808L58.9708 82.8923L58.2012 89.8236C58.2012 89.8236 58.629 92.9021 58.543 93.3741C58.4569 93.8461 60.2985 98.0779 60.2985 98.0779C60.2985 98.0779 66.3718 108.899 68.8527 109.457L77.2373 103.468L75.0121 100.645C75.0121 100.645 74.2425 100.345 74.0495 100.645C74.0495 100.645 69.9223 93.5438 69.4945 93.03C69.0666 92.5161 69.1527 91.4907 69.1527 91.4907C69.1527 91.4907 68.5109 90.8071 68.7249 90.1654C68.9388 89.5236 67.4832 87.2985 67.4832 87.2985L68.8086 86.0592L59.6125 82.3808Z" fill="white"/>
<path opacity="0.1" d="M99.4368 109.534C99.9018 110.099 99.6089 112.636 99.6089 112.636L98.3254 114.761C98.3254 114.761 98.4021 116.133 98.4068 117.981L96.249 118.655C96.054 118.716 95.8473 118.73 95.6461 118.695C95.4448 118.659 95.2549 118.576 95.0922 118.453C94.9296 118.329 94.7988 118.169 94.7108 117.984C94.6228 117.8 94.5802 117.597 94.5866 117.393L94.9586 105.393L99.9925 107.318C99.5647 107.616 100.034 108.346 100.034 108.346C100.034 108.346 98.9671 108.969 99.4368 109.534Z" fill="black"/>
<path d="M99.6939 109.276C100.159 109.841 99.866 112.38 99.866 112.38L98.5825 114.505C98.5825 114.505 98.6593 115.874 98.6662 117.725L96.469 118.411C96.278 118.471 96.0756 118.483 95.8787 118.449C95.6817 118.414 95.4959 118.333 95.3367 118.212C95.1774 118.091 95.0494 117.934 94.9633 117.753C94.8771 117.573 94.8353 117.374 94.8414 117.174L95.2157 105.137L100.252 107.062C99.8218 107.36 100.292 108.088 100.292 108.088C100.292 108.088 99.2289 108.713 99.6939 109.276Z" fill="white"/>
<path d="M101.36 103.556C101.36 103.556 101.018 105.739 100.163 105.867C99.3071 105.995 98.9234 109.399 98.0701 109.278C97.2167 109.157 97.7818 106.114 97.812 105.523C97.8422 104.932 96.8819 102.486 97.6004 101.931C98.3189 101.375 100.593 101.931 100.593 101.931L101.36 103.556Z" fill="#CF6F80"/>
<path opacity="0.1" d="M103.181 86.7426L104.794 83.4874C104.794 83.4874 105.436 85.9683 105.436 87.2937C105.436 88.619 106.334 88.7492 106.334 88.7492C106.334 88.7492 107.317 89.9118 106.799 90.7582C106.28 91.6045 106.071 93.7111 106.071 93.7111C106.071 93.7111 106.241 97.7313 105.471 98.287C104.701 98.8428 104.541 100.17 104.541 100.17C104.541 100.17 103.127 102.693 103.171 103.293C103.216 103.893 101.204 107.955 101.204 107.955C101.204 107.955 102.188 102.907 96.4564 100.726C96.4564 100.726 96.4122 99.0125 96.84 98.5428C97.2679 98.0731 97.9352 97.8592 97.5167 95.4852C97.0981 93.1112 97.3957 90.2745 97.3957 89.7049C97.3957 89.1352 98.6792 85.5823 98.6792 85.5823L103.181 86.7426Z" fill="black"/>
<path d="M103.878 83.0224L105.288 83.4874C105.288 83.4874 105.932 85.9684 105.932 87.2937C105.932 88.6191 106.829 88.7493 106.829 88.7493C106.829 88.7493 107.813 89.9118 107.294 90.7582C106.776 91.6046 106.569 93.7111 106.569 93.7111C106.569 93.7111 106.738 97.7313 105.969 98.2871C105.199 98.8428 105.027 100.17 105.027 100.17C105.027 100.17 103.616 102.693 103.66 103.293C103.704 103.893 101.691 107.955 101.691 107.955C101.691 107.955 102.676 102.907 96.9425 100.726C96.9425 100.726 96.9007 99.0125 97.3285 98.5428C97.7563 98.0731 98.4237 97.8592 98.0051 95.4852C97.5866 93.1113 97.8842 90.2746 97.8842 89.7049C97.8842 89.1352 99.1677 85.5824 99.1677 85.5824L103.878 83.0224Z" fill="white"/>
<path opacity="0.1" d="M72.7568 167.396C72.7568 167.396 75.0029 165.984 76.4771 167.01C77.9512 168.035 72.7568 167.396 72.7568 167.396Z" fill="black"/>
<path opacity="0.1" d="M90.209 163.031C90.209 163.031 92.197 162.775 93.8665 164.573C95.5359 166.37 90.209 163.031 90.209 163.031Z" fill="black"/>
<g opacity="0.1">
<path opacity="0.1" d="M93.1185 50.5839C92.8325 50.8304 92.4651 51.0071 92.2744 51.3349C92.1117 51.6163 92.107 51.9627 91.9768 52.265C91.8466 52.5673 91.4676 52.8137 91.2049 52.6231C91.1444 50.5304 90.112 48.5657 88.8448 46.8916C88.4905 46.3863 88.0599 45.9392 87.5683 45.5662C87.0707 45.1921 86.4513 45.0171 85.8314 45.0756C85.1339 45.171 84.52 45.6453 83.8155 45.7034C82.8854 45.7825 82.0507 45.1384 81.1276 45.1059C80.7525 45.1096 80.3825 45.1935 80.0424 45.3519C79.7023 45.5103 79.4001 45.7395 79.1559 46.0243C78.6705 46.5968 78.3101 47.2644 78.0979 47.9844C77.7325 49.0769 77.5334 50.2181 77.5073 51.3698C77.4934 52.0185 77.4329 52.8277 76.833 53.0695C76.847 53.2413 76.847 53.4139 76.833 53.5857C77.4376 53.3532 77.498 52.5347 77.512 51.8837C77.5379 50.732 77.737 49.5907 78.1026 48.4983C78.3148 47.7776 78.6751 47.1092 79.1605 46.5358C79.4052 46.2518 79.7077 46.0233 80.0476 45.8653C80.3876 45.7073 80.7574 45.6236 81.1322 45.6197C82.0623 45.6523 82.8994 46.294 83.8201 46.2173C84.5177 46.1592 85.1362 45.6825 85.8361 45.5895C86.4559 45.531 87.0753 45.7059 87.573 46.0801C88.0645 46.4531 88.4952 46.9002 88.8495 47.4054C90.1167 49.0772 91.1491 51.0373 91.2095 53.1346C91.4723 53.3276 91.8513 53.0765 91.9815 52.7789C92.1117 52.4812 92.1163 52.1325 92.2791 51.8488C92.4698 51.521 92.8371 51.3466 93.1231 51.1001C93.8486 50.4746 94.0299 49.4213 94.002 48.4657C94.002 48.4355 94.002 48.4053 94.002 48.3773C93.9579 49.2051 93.737 50.0491 93.1185 50.5839Z" fill="black"/>
<path opacity="0.1" d="M75.9538 50.4188C75.419 49.8306 74.6889 49.4376 74.1983 48.8145C73.7852 48.2628 73.5492 47.5988 73.5217 46.9102C73.4485 47.7707 73.6888 48.6287 74.1983 49.326C74.6889 49.9515 75.419 50.3444 75.9538 50.9327C76.4673 51.5081 76.7755 52.2375 76.8304 53.0067C76.866 52.5386 76.8067 52.0681 76.6561 51.6234C76.5054 51.1787 76.2666 50.769 75.9538 50.4188Z" fill="black"/>
<path opacity="0.1" d="M94.4556 43.3992C94.3185 43.9689 94.0743 44.5106 93.9627 45.085C93.8966 45.4687 93.8724 45.8585 93.8906 46.2475C93.8984 46.0259 93.9225 45.8052 93.9627 45.5872C94.0743 45.0105 94.3185 44.4711 94.4556 43.9015C94.5356 43.5873 94.5615 43.2617 94.5324 42.9388C94.5179 43.094 94.4923 43.2478 94.4556 43.3992Z" fill="black"/>
</g>
<path opacity="0.1" d="M30.8615 176.85C43.3743 176.85 53.5179 175.221 53.5179 173.211C53.5179 171.201 43.3743 169.572 30.8615 169.572C18.3487 169.572 8.20508 171.201 8.20508 173.211C8.20508 175.221 18.3487 176.85 30.8615 176.85Z" fill="#7085F5"/>
<path d="M31.5917 103.502H30.1338V136.327H31.5917V103.502Z" fill="#535461"/>
<path d="M40.7525 136.227L40.6618 137.706L40.5316 139.798L40.4782 140.668L40.3503 142.76L40.2945 143.63L40.1643 145.723L38.6948 169.456C38.6309 170.477 38.1803 171.435 37.4347 172.136C36.6892 172.837 35.7046 173.227 34.6815 173.227H27.041C26.0181 173.227 25.0339 172.836 24.2887 172.136C23.5435 171.435 23.0934 170.477 23.0301 169.456L21.5676 145.706L21.4374 143.614L21.3839 142.744L21.2537 140.652L21.2002 139.782L21.07 137.689L20.977 136.21C20.9608 135.926 21.003 135.641 21.1009 135.373C21.1988 135.105 21.3504 134.861 21.5464 134.653C21.7423 134.446 21.9785 134.282 22.2405 134.169C22.5024 134.057 22.7846 133.999 23.0696 133.999H38.6971C38.9811 134.002 39.2616 134.062 39.5212 134.177C39.7809 134.292 40.0142 134.459 40.2069 134.668C40.3995 134.877 40.5472 135.123 40.6411 135.391C40.7349 135.659 40.7729 135.943 40.7525 136.227Z" fill="#3F3D56"/>
<path d="M40.6617 137.706L40.5315 139.791H21.1908L21.0605 137.706H40.6617Z" fill="#9D9CB5"/>
<path d="M40.4789 140.661L40.351 142.749H21.3753L21.2451 140.661H40.4789Z" fill="#9D9CB5"/>
<path d="M40.2951 143.621L40.1672 145.706H21.5589L21.4287 143.621H40.2951Z" fill="#9D9CB5"/>
<path d="M18.8367 115.805C27.3259 121.948 30.8694 131.556 30.8694 131.556C30.8694 131.556 20.6387 131.204 12.1472 125.061C3.65572 118.918 0.119141 109.313 0.119141 109.313C0.119141 109.313 10.3452 109.662 18.8367 115.805Z" fill="#7085F5"/>
<path d="M0.112305 109.313C0.112305 109.313 10.7337 115.207 14.14 120.088C17.5464 124.968 30.8696 131.556 30.8696 131.556" stroke="#535461" stroke-width="2" stroke-miterlimit="10"/>
<path d="M24.3168 103.43C28.9369 106.772 30.8691 112.001 30.8691 112.001C30.8691 112.001 25.3003 111.81 20.6779 108.469C16.0555 105.128 14.1279 99.896 14.1279 99.896C14.1279 99.896 19.6944 100.087 24.3168 103.43Z" fill="#7085F5"/>
<path d="M14.1279 99.896C14.1279 99.896 19.9083 103.105 21.7614 105.76C23.6146 108.415 30.8691 112.001 30.8691 112.001" stroke="#535461" stroke-width="2" stroke-miterlimit="10"/>
<path d="M37.5769 111.736C32.2686 117.57 31.1455 125.194 31.1455 125.194C31.1455 125.194 38.6302 123.357 43.9339 117.521C49.2376 111.685 50.3653 104.063 50.3653 104.063C50.3653 104.063 42.8852 105.902 37.5769 111.736Z" fill="#7085F5"/>
<path d="M50.37 104.065C50.37 104.065 43.4549 110.045 41.6971 114.166C39.9393 118.286 31.1455 125.194 31.1455 125.194" stroke="#535461" stroke-width="2" stroke-miterlimit="10"/>
<path d="M232.44 109.683C232.44 109.683 228.601 90.5839 230.071 88.2075C230.071 88.2075 230.124 85.9986 230.036 83.1828C230.036 83.0759 230.036 82.9689 230.036 82.8596C230.294 83.032 230.564 83.1874 230.843 83.3247C232.196 84.0203 233.751 84.221 235.237 83.892L234.074 82.5969C233.795 82.2877 233.505 81.9528 233.444 81.5436C233.384 81.1344 233.551 80.7693 233.695 80.4043C234.8 77.6141 234.858 74.1054 232.731 71.9755C230.933 70.1852 230.496 67.874 228.545 66.2394C227.12 65.0419 226.336 63.2864 225.597 61.589C224.971 60.1544 224.341 58.7081 223.983 57.1875C223.704 55.9993 223.593 54.7693 223.209 53.6091C222.825 52.4488 222.107 51.3211 220.984 50.8026C220.584 50.6189 220.14 50.5142 219.775 50.2701C219.296 49.9469 219.007 49.4214 218.661 48.961C216.901 46.6359 211.007 48.0054 208.216 48.9494C207.458 49.1871 206.755 49.5763 206.152 50.0934L206.177 50.0515C206.198 50.0167 206.224 49.9818 206.247 49.9469C205.942 50.1939 205.678 50.4883 205.466 50.8188C205.059 51.4629 204.889 52.214 204.55 52.9115C204.14 53.7369 201.864 56.0412 202.843 56.9689C202.911 57.0312 202.99 57.0815 203.075 57.1177C203.443 57.2707 203.847 57.3111 204.238 57.234L204.196 57.334C203.862 58.1525 203.69 59.0284 203.692 59.9126C203.692 63.7328 206.842 66.8299 210.732 66.8299C211.463 66.8307 212.19 66.7185 212.888 66.4974C212.904 66.5858 212.918 66.6742 212.934 66.7625C212.934 66.7974 212.946 66.8323 212.95 66.8672L212.827 67.0392C212.821 67.0286 212.814 67.0185 212.806 67.009L209.156 72.1104C208.598 72.5034 205.384 74.8285 205.203 76.5724C205.012 78.4814 204.822 80.7158 204.822 80.7158L204.796 81.1948C204.636 81.3281 204.45 81.4253 204.249 81.4794C204.048 81.5336 203.838 81.5436 203.633 81.5087C202.494 81.3227 202.494 85.694 202.494 85.694C202.494 85.694 201.736 86.3916 201.215 85.787C200.694 85.1825 199.318 87.231 199.318 87.231L190.692 87.603L190.494 87.6146L190.029 86.1753C189.979 86.0235 189.871 85.8976 189.729 85.8249C189.586 85.7522 189.421 85.7386 189.269 85.787C189.233 85.7989 189.198 85.8137 189.164 85.8312L189.131 85.8498L189.071 85.8917L189.041 85.9196C189.024 85.9347 189.009 85.951 188.994 85.9684L188.966 86.001L188.952 86.0149C188.899 86.0891 188.863 86.1749 188.849 86.2654C188.834 86.3558 188.841 86.4484 188.869 86.5357L189.269 87.7704C187.604 88.1052 185.902 89.0492 187.29 91.6488L180.254 90.349L182.53 92.2603L194.282 94.6855C194.126 94.9645 194.228 95.369 194.714 95.9387C196.807 98.3964 200.62 99.0637 202.155 99.2358C202.56 100.142 203.066 101 203.664 101.793L203.531 104.242C203.531 104.242 199.646 122.904 198.934 123.85C199.293 123.443 199.622 123.01 199.918 122.555C198.79 126.389 197.214 131.637 196.8 132.423C196.135 133.679 195.519 138.759 196.277 139.085C196.509 139.185 197.174 139.136 198.123 139.064V139.484L198.081 155.433C198.081 155.433 198.272 165.215 197.748 166.147C197.225 167.08 197.086 169.035 197.086 169.035C197.086 169.035 194.993 172.892 193.335 174.443C193.324 174.455 193.312 174.466 193.298 174.476L193.247 174.113C193.247 174.113 191.254 176.629 186.846 176.487C186.846 176.487 184.193 178.212 188.127 178.305C192.061 178.398 197.086 178.166 197.086 178.166C197.086 178.166 200.594 172.818 203.533 173.516V177.568H204.433V173.45C204.851 173.176 205.208 172.819 205.483 172.402C205.759 171.985 205.946 171.517 206.035 171.025C206.112 170.519 206.056 170.001 205.872 169.522C205.687 169.044 205.382 168.622 204.984 168.298C204.806 168.137 204.663 167.94 204.564 167.721C204.465 167.502 204.413 167.264 204.41 167.024L204.377 167.052C204.377 166.97 204.357 166.887 204.347 166.801C204.089 164.708 203.766 160.39 204.908 157.195C206.472 152.815 206.947 146.713 205.807 143.081C205.44 141.921 205.138 140.74 204.903 139.545C204.875 139.394 204.849 139.25 204.826 139.115C205.605 139.22 206.376 139.375 207.135 139.58C209.774 140.308 215.548 140.442 220.477 140.403C220.489 140.538 220.502 140.68 220.519 140.821C220.607 141.807 220.79 142.782 221.068 143.733C221.686 145.593 221.97 153.794 221.97 153.794C221.97 153.794 222.767 160.537 222.332 163.28C222.1 164.806 221.867 166.338 221.735 167.877V167.907C221.735 167.907 220.428 171.628 219.472 173.648C219.449 173.699 219.424 173.75 219.4 173.799C219.146 173.822 218.895 173.878 218.654 173.964C218.654 173.964 217.373 176.522 216.096 176.945C214.82 177.368 215.243 178.761 218.133 178.25C221.023 177.738 225.388 177.32 225.388 177.32L225.576 174.711L226.464 173.599L226.232 176.201L227.178 176.015L227.052 172.851L228.506 171.032C228.506 171.032 230.261 169.47 227.652 166.396V166.463C227.624 166.419 227.599 166.373 227.569 166.328V166.315C227.136 165.645 226.792 164.396 227.422 162.18C228.562 158.176 229.224 154.542 229.224 154.542C229.224 154.542 231.768 144.807 228.71 140.201H228.845C228.532 139.552 228.31 138.864 228.187 138.154C228.172 138.071 228.158 137.985 228.145 137.896C230.408 137.766 232.628 137.357 234.44 136.473C234.433 136.464 233.342 113.361 232.44 109.683ZM203.717 93.5694V93.6159L203.252 93.6391L203.717 93.5694ZM202.122 93.7903C202.046 93.8072 201.974 93.8414 201.913 93.8902C201.713 94.1731 201.587 94.5018 201.548 94.8459L200.822 94.6831C200.822 94.6831 200.313 94.5738 199.581 94.4506L199.234 94.1018C200.188 94.0228 201.178 93.9065 202.122 93.7903Z" fill="url(#paint1_linear)"/>
<path d="M226.124 172.883L225.848 176.178L226.775 175.992L226.636 172.418L226.124 172.883Z" fill="#7085F5"/>
<path d="M204.959 157.239C203.841 160.425 204.157 164.724 204.408 166.812C204.501 167.584 204.587 168.054 204.587 168.054C204.587 168.054 202.915 171.862 202.776 172.007C202.636 172.151 197.856 175.069 197.856 175.069L194.514 177.02C194.514 177.02 191.124 175.534 192.75 175.022C193.082 174.889 193.381 174.685 193.626 174.425C195.254 172.878 197.298 169.035 197.298 169.035C197.298 169.035 197.437 167.084 197.949 166.156C198.46 165.229 198.274 155.479 198.274 155.479L198.314 139.587V137.515L204.673 137.562C204.713 138.265 204.805 138.964 204.947 139.654C205.176 140.845 205.471 142.022 205.833 143.179C206.954 146.804 206.489 152.875 204.959 157.239Z" fill="#FFB0B1"/>
<path opacity="0.1" d="M204.587 168.054C204.587 168.054 202.915 171.862 202.776 172.006C202.636 172.151 197.856 175.069 197.856 175.069L194.514 177.019C194.514 177.019 191.124 175.534 192.75 175.022C193.082 174.889 193.381 174.685 193.626 174.425L193.77 175.441L194.884 175.394L204.417 166.817C204.501 167.584 204.587 168.054 204.587 168.054Z" fill="black"/>
<path d="M204.47 167.033L194.883 175.669L193.769 175.715L193.537 174.087C193.537 174.087 191.588 176.594 187.259 176.454C187.259 176.454 184.659 178.173 188.512 178.266C192.365 178.359 197.285 178.126 197.285 178.126C197.285 178.126 200.721 172.778 203.598 173.476V177.515H204.481V173.439C204.892 173.162 205.243 172.805 205.512 172.39C205.781 171.974 205.964 171.508 206.048 171.021C206.125 170.518 206.071 170.004 205.891 169.528C205.712 169.053 205.413 168.631 205.023 168.305C204.849 168.142 204.71 167.945 204.615 167.726C204.52 167.507 204.47 167.271 204.47 167.033Z" fill="#7085F5"/>
<path d="M227.008 162.206C226.39 164.415 226.727 165.659 227.15 166.326V166.34C227.693 167.164 228.07 168.085 228.262 169.053L228.299 169.263L223.937 175.622L221.57 176.552C221.57 176.552 217.764 175.252 218.459 174.88C218.633 174.79 218.905 174.306 219.217 173.639C220.147 171.627 221.43 167.916 221.43 167.916V167.886C221.565 166.354 221.779 164.826 222.016 163.306C222.442 160.569 221.661 153.851 221.661 153.851C221.661 153.851 221.382 145.683 220.777 143.825C220.504 142.881 220.323 141.912 220.235 140.933C220.11 139.77 220.082 138.812 220.082 138.812C220.082 138.812 222.588 135.324 227.183 139.091C227.55 139.392 227.874 139.742 228.143 140.133C231.317 144.648 228.762 154.596 228.762 154.596C228.762 154.596 228.122 158.213 227.008 162.206Z" fill="#FFB0B1"/>
<path opacity="0.1" d="M228.306 169.263L223.944 175.622L221.577 176.552C221.577 176.552 217.77 175.252 218.466 174.88C218.64 174.79 218.912 174.306 219.224 173.639C220.835 173.625 221.67 175.159 221.67 175.159L223.711 174.834C223.711 174.834 226.404 169.542 227.008 169.219C227.613 168.895 227.101 166.803 227.101 166.803V166.27C227.118 166.289 227.132 166.31 227.15 166.328V166.342C227.693 167.166 228.07 168.088 228.262 169.056L228.306 169.263Z" fill="black"/>
<path d="M221.81 175.296C221.81 175.296 220.647 173.162 218.419 173.95C218.419 173.95 217.166 176.508 215.913 176.922C214.66 177.336 215.078 178.731 217.91 178.222C220.742 177.712 225.011 177.291 225.011 177.291L225.197 174.69L228.076 171.023C228.076 171.023 229.792 169.467 227.239 166.405V166.938C227.239 166.938 227.75 169.03 227.146 169.353C226.541 169.677 223.858 174.971 223.858 174.971L221.81 175.296Z" fill="#7085F5"/>
<path opacity="0.1" d="M204.68 137.557C204.72 138.26 204.812 138.959 204.954 139.649C202.336 139.266 199.906 139.456 198.313 139.582V137.51L204.68 137.557Z" fill="black"/>
<path opacity="0.1" d="M228.401 140.712C228.401 140.712 224.681 140.893 220.244 140.931C220.119 139.768 220.091 138.81 220.091 138.81C220.091 138.81 222.597 135.322 227.192 139.089C227.559 139.39 227.883 139.74 228.152 140.131C228.224 140.329 228.307 140.523 228.401 140.712Z" fill="black"/>
<path d="M228.401 140.293C228.401 140.293 212.106 141.082 207.139 139.689C202.173 138.296 197.251 139.503 196.509 139.18C195.767 138.856 196.369 133.795 197.02 132.541C197.671 131.288 201.243 118.614 201.243 118.614L204.679 100.696L208.3 99.6983L208.555 99.6263L214.864 97.887L219.486 96.6105C219.486 96.6105 228.677 132.495 227.889 135.141C227.603 136.154 227.557 137.22 227.754 138.254C227.875 138.96 228.092 139.647 228.401 140.293Z" fill="#7085F5"/>
<path d="M192.7 88.4423C192.7 88.4423 189.445 91.93 191.91 93.8738C194.374 95.8177 195.995 94.0598 195.995 94.0598L192.7 88.4423Z" fill="#C7DAF5"/>
<path opacity="0.1" d="M192.7 88.4423C192.7 88.4423 189.445 91.93 191.91 93.8738C194.374 95.8177 195.995 94.0598 195.995 94.0598L192.7 88.4423Z" fill="black"/>
<path d="M219 65.5115C219 65.5115 218.619 65.8742 218.044 66.409C217.226 67.174 216.014 68.2924 214.94 69.2295C213.452 70.5246 212.224 71.4756 212.664 70.6641C213.103 69.8526 213.02 68.4389 212.801 67.1159C212.785 67.0275 212.771 66.9392 212.755 66.8531C212.574 65.8815 212.334 64.9217 212.036 63.9792C212.036 63.9792 214.44 60.8728 215.77 59.6474C216.266 59.1824 216.612 58.9917 216.633 59.3149C216.656 59.7497 216.982 60.71 217.386 61.7284C217.398 61.761 217.41 61.7912 217.424 61.8238C217.693 62.5213 217.998 63.2375 218.265 63.856C218.674 64.8047 219 65.5115 219 65.5115Z" fill="#FFB0B1"/>
<path opacity="0.1" d="M217.424 61.8237C217.198 63.0389 216.649 64.1712 215.836 65.1021C215.023 66.0331 213.975 66.7285 212.801 67.1158C212.616 66.0544 212.361 65.0065 212.036 63.9792C212.036 63.9792 216.563 58.1314 216.633 59.3149C216.649 59.7636 217.003 60.7588 217.424 61.8237Z" fill="black"/>
<path opacity="0.1" d="M212.351 68.6785L212.937 67.8531C212.937 67.8531 213.325 70.2201 214.753 69.1761C216.181 68.1321 216.25 77.0328 216.25 77.0328L214.718 99.9427L203.646 99.2801L203.959 88.2099L205.213 82.6295L208.312 74.517L210.156 71.8361L212.351 68.6785Z" fill="black"/>
<path d="M216.25 77.1745L214.855 97.8894L214.708 100.084L208.535 99.7147L208.303 99.7007L203.652 99.4217L203.966 88.3493L205.219 82.7689L208.319 74.6563L210.163 71.9754L212.358 68.8062L212.944 67.9831C212.944 67.9831 213.332 70.3501 214.76 69.3061L214.79 69.2852C216.185 68.4016 216.25 77.1745 216.25 77.1745Z" fill="#7085F5"/>
<path d="M205.375 80.8297C205.375 80.8297 204.819 81.9922 203.703 81.8039C202.587 81.6156 202.589 85.9892 202.589 85.9892C202.589 85.9892 201.848 86.6867 201.336 86.0822C200.825 85.4776 199.476 87.5215 199.476 87.5215L191.026 87.8935C191.026 87.8935 194.786 89.6118 194.049 94.8108C194.049 94.8108 206.814 94.0203 207.233 92.8135C207.651 91.6068 205.375 80.8297 205.375 80.8297Z" fill="white"/>
<path opacity="0.03" d="M205.375 80.8297C205.375 80.8297 204.819 81.9922 203.703 81.8039C202.587 81.6156 202.589 85.9892 202.589 85.9892C202.589 85.9892 201.848 86.6867 201.336 86.0822C200.825 85.4776 199.476 87.5215 199.476 87.5215L191.026 87.8935C191.026 87.8935 194.786 89.6118 194.049 94.8108C194.049 94.8108 206.814 94.0203 207.233 92.8135C207.651 91.6068 205.375 80.8297 205.375 80.8297Z" fill="black"/>
<path d="M180.819 90.6255L183.047 92.5275L201.383 96.3804L199.109 94.0598L180.819 90.6255Z" fill="white"/>
<path d="M212.385 69.4108C212.08 69.8758 211.208 72.2568 210.48 74.3355C209.874 76.0677 209.367 77.5907 209.367 77.5907C209.367 77.5907 208.183 85.2963 207.579 86.6891C206.974 88.0819 207.302 93.5135 207.302 93.5135L205.049 106.927C205.049 106.927 204.028 113.845 202.452 117.977C200.896 122.043 199.164 123.95 199.11 124.01C199.808 123.066 203.61 104.479 203.61 104.479L204.865 81.0366C204.865 81.0366 205.049 78.8091 205.235 76.9048C205.421 75.0005 209.188 72.401 209.188 72.401L212.819 67.2368C213.185 67.725 212.94 68.5761 212.385 69.4108Z" fill="white"/>
<path d="M202.915 99.5381C202.915 99.5381 197.567 99.3056 194.977 96.1945C192.386 93.0835 200.964 94.9529 200.964 94.9529L203.194 95.4645L202.915 99.5381Z" fill="#FFB0B1"/>
<path opacity="0.1" d="M227.89 135.143C227.604 136.156 227.558 137.222 227.755 138.257C221.922 138.671 215.681 137.094 215.681 137.094C214.518 138.164 211.456 139.74 211.456 139.74L209.787 119.046C208.719 116.256 208.301 101.638 208.301 101.638C208.301 101.638 208.396 100.873 208.533 99.7263C208.533 99.6984 208.533 99.6681 208.545 99.6402C208.961 96.4385 209.787 90.4279 210.191 89.6164C210.749 88.5004 208.475 85.5311 208.475 85.5311L209.51 76.7071L209.635 75.6422C211.816 74.6679 213.488 71.5569 213.488 71.5569L214.772 69.3084C216.167 68.4132 216.239 77.1861 216.239 77.1861L214.844 97.901L219.466 96.6245C219.466 96.6245 228.679 132.497 227.89 135.143Z" fill="black"/>
<path d="M233.877 136.573C227.517 139.731 215.959 136.806 215.959 136.806C214.797 137.875 211.734 139.452 211.734 139.452L210.063 118.758C208.998 115.968 208.579 101.349 208.579 101.349C208.579 101.349 209.923 90.4419 210.481 89.3282C210.644 89.0027 210.565 88.519 210.372 87.9982C209.423 85.5192 209.074 82.8509 209.353 80.2112L209.8 76.4189L209.923 75.3563C212.106 74.3797 213.778 71.2687 213.778 71.2687L214.941 69.2318L217.08 65.479L218.094 63.7026L218.266 63.8584L219.579 65.0488C219.579 65.0488 220.137 65.5139 220.975 66.2114C222.795 67.746 225.941 70.4479 227.564 72.1011C228.992 73.5566 229.443 79.2184 229.573 83.4804C229.659 86.2869 229.608 88.4865 229.608 88.4865C228.169 90.8558 231.933 109.878 231.933 109.878C232.81 113.554 233.877 136.573 233.877 136.573Z" fill="white"/>
<path opacity="0.03" d="M221.67 71.2221C221.67 71.2221 217.305 79.5299 217.812 82.6875C218.319 85.8451 219.761 89.4189 219.065 90.2536C218.827 90.5698 218.518 90.8265 218.163 91.0036C217.809 91.1807 217.418 91.2734 217.022 91.2743C216.324 91.3208 214.464 92.6206 214.464 92.7601C214.464 92.8996 212.746 92.8996 211.209 93.5507C209.672 94.2017 207.402 94.5714 207.402 94.5714C207.402 94.5714 202.985 94.4319 202.573 94.8504C202.161 95.269 201.738 97.7732 202.619 99.7705C203.501 101.768 204.48 103.258 205.219 103.53C205.958 103.802 210.651 102.231 214.457 101.859C218.263 101.486 222.395 98.4707 222.395 98.4707C222.395 98.4707 226.945 96.8431 227.743 94.1064C228.54 91.3697 226.769 76.3282 226.769 76.3282C226.769 76.3282 225.429 69.3178 221.67 71.2221Z" fill="black"/>
<path opacity="0.03" d="M221.111 70.5247C221.111 70.5247 216.747 78.8348 217.258 81.9901C217.77 85.1453 219.207 88.7214 218.509 89.5585C218.271 89.8751 217.963 90.1321 217.609 90.3092C217.254 90.4864 216.864 90.5788 216.468 90.5792C215.77 90.6257 213.91 91.9255 213.91 92.065C213.91 92.2045 212.192 92.2045 210.655 92.8532C209.118 93.502 206.848 93.874 206.848 93.874C206.848 93.874 202.431 93.7345 202.021 94.153C201.612 94.5715 201.184 97.0781 202.068 99.0731C202.951 101.068 203.928 102.561 204.667 102.833C205.407 103.105 210.099 101.533 213.905 101.163C217.712 100.794 221.843 97.7733 221.843 97.7733C221.843 97.7733 226.392 96.1457 227.18 93.4113C227.968 90.6769 226.205 75.6307 226.205 75.6307C226.205 75.6307 224.871 68.6227 221.111 70.5247Z" fill="black"/>
<path d="M221.533 70.8037C221.533 70.8037 217.169 79.1138 217.68 82.2691C218.192 85.4243 219.629 89.0004 218.934 89.8352C218.696 90.1525 218.387 90.4101 218.032 90.5877C217.678 90.7652 217.286 90.8579 216.89 90.8582C216.192 90.9047 214.332 92.2045 214.332 92.3417C214.332 92.4789 212.616 92.4812 211.077 93.1322C209.538 93.7833 207.27 94.153 207.27 94.153C207.27 94.153 202.853 94.0135 202.441 94.432C202.03 94.8505 201.606 97.3571 202.488 99.3521C203.369 101.347 204.348 102.84 205.087 103.112C205.827 103.384 210.519 101.812 214.325 101.44C218.131 101.068 222.263 98.0523 222.263 98.0523C222.263 98.0523 226.813 96.4247 227.611 93.688C228.409 90.9512 226.648 75.9097 226.648 75.9097C226.648 75.9097 225.291 68.911 221.533 70.8037Z" fill="white"/>
<path opacity="0.1" d="M221.438 93.0925C221.438 93.0925 217.95 92.395 219.164 93.5576C220.377 94.7202 220.37 95.7386 221.856 95.6921C223.342 95.6456 221.438 93.0925 221.438 93.0925Z" fill="black"/>
<path opacity="0.1" d="M227.331 118.107C227.331 118.107 225.754 119.174 228.77 121.634C231.785 124.094 227.331 118.107 227.331 118.107Z" fill="black"/>
<path opacity="0.1" d="M224.324 126.88C224.324 127.019 223.766 131.995 225.853 133.239C227.941 134.483 224.324 126.88 224.324 126.88Z" fill="black"/>
<path d="M191.17 87.882C189.487 87.9401 185.85 88.4539 187.736 91.9719C189.403 95.0853 192.205 93.0042 193.781 91.4255C193.397 89.9535 192.462 88.6852 191.17 87.882Z" fill="#FFB0B1"/>
<path d="M193.803 91.3734L193.849 91.3255L193.803 91.3734Z" fill="#FFB0B1"/>
<path opacity="0.1" d="M220.976 66.3534C219.19 67.5741 217.692 68.6041 217.399 68.818C216.6 69.411 215.074 72.8918 214.091 74.6682C213.307 76.0982 210.761 76.4655 209.801 76.5562L209.924 75.4936C212.107 74.517 213.779 71.406 213.779 71.406L218.095 63.8398L219.58 65.1908C219.58 65.1908 220.139 65.6558 220.976 66.3534Z" fill="black"/>
<path d="M220.976 66.2138C219.19 67.4345 217.692 68.4645 217.399 68.6808C216.6 69.2714 215.074 72.7521 214.091 74.5286C213.307 75.9585 210.761 76.3259 209.801 76.4166L209.924 75.354C212.107 74.3774 213.779 71.2663 213.779 71.2663L218.095 63.7003L219.58 65.0465C219.58 65.0465 220.139 65.5069 220.976 66.2138Z" fill="#DCE7FF"/>
<path d="M217.537 60.2892C217.538 61.685 217.115 63.0481 216.323 64.1978C215.389 65.5572 213.998 66.5365 212.403 66.958C210.808 67.3795 209.114 67.2152 207.63 66.4951C206.146 65.775 204.969 64.5467 204.313 63.033C203.657 61.5194 203.565 59.8207 204.054 58.2452C204.544 56.6697 205.581 55.3218 206.979 54.446C208.378 53.5702 210.043 53.2246 211.674 53.4719C213.305 53.7192 214.794 54.543 215.869 55.7938C216.945 57.0446 217.537 58.6395 217.537 60.2892Z" fill="#FFB0B1"/>
<path opacity="0.1" d="M229.573 83.4828C228.629 82.902 227.86 82.0759 227.348 81.0926C226.96 80.3253 226.702 79.4394 226.039 78.8953C225.441 78.407 224.644 78.2884 223.9 78.0698C221.454 77.3467 219.403 75.1146 219.326 72.5662C219.289 71.3664 219.663 70.1689 219.494 68.9808C219.397 68.3083 219.13 67.6719 218.717 67.1322C218.512 66.8742 218.287 66.6324 218.045 66.4091C217.719 66.1022 217.378 65.8046 217.08 65.479C216.893 65.2775 216.729 65.0552 216.592 64.8164C216.481 64.621 216.392 64.4144 216.324 64.2002C215.859 62.7772 216.283 61.0891 215.771 59.6499L215.743 59.5708C215.55 59.0593 215.157 58.5477 214.611 58.5082C214.064 58.4687 213.597 58.9221 213.076 59.1244C211.986 59.5475 210.809 58.8267 209.9 58.092C208.991 57.3572 207.965 56.5178 206.81 56.6806C206.045 56.7899 205.44 57.3107 204.736 57.5804C204.577 57.642 204.412 57.6895 204.245 57.7223C204.841 56.2354 205.937 55.0025 207.343 54.2355C208.75 53.4685 210.379 53.2153 211.952 53.5193C213.525 53.8233 214.943 54.6656 215.962 55.9014C216.982 57.1373 217.539 58.6896 217.538 60.2916C217.539 60.7754 217.488 61.2578 217.387 61.7309C217.399 61.7634 217.41 61.7937 217.424 61.8262C217.694 62.5238 217.998 63.2399 218.266 63.8584L219.58 65.0489C219.58 65.0489 220.138 65.5139 220.975 66.2115C222.795 67.7461 225.941 70.4479 227.564 72.1011C228.992 73.5613 229.438 79.2208 229.573 83.4828Z" fill="black"/>
<path d="M204.654 53.3322C204.986 52.6556 205.151 51.8976 205.549 51.2559C206.132 50.3258 207.151 49.7306 208.197 49.3702C210.929 48.4285 216.703 47.0613 218.428 49.3702C218.767 49.8352 219.049 50.3514 219.518 50.6722C219.876 50.9164 220.309 51.021 220.702 51.2047C221.802 51.7209 222.504 52.8463 222.878 53.9949C223.253 55.1435 223.364 56.3759 223.639 57.5594C223.99 59.0777 224.606 60.517 225.22 61.947C225.943 63.635 226.71 65.3859 228.105 66.5787C230.009 68.2063 230.43 70.5106 232.197 72.2963C234.29 74.4169 234.223 77.9162 233.144 80.6948C233.002 81.0598 232.842 81.4412 232.897 81.8295C232.953 82.2178 233.241 82.5712 233.513 82.8805L234.657 84.1709C231.951 84.8243 228.889 83.4106 227.628 80.9296C227.24 80.1623 226.982 79.2788 226.317 78.7324C225.722 78.2441 224.922 78.1278 224.18 77.9093C221.734 77.1838 219.683 74.9493 219.607 72.4009C219.569 71.2035 219.944 70.006 219.774 68.8202C219.68 68.1432 219.411 67.5023 218.995 66.96C218.356 66.1253 217.391 65.5649 216.87 64.6349C215.989 63.0793 216.658 61.0588 216.024 59.3893C215.828 58.8778 215.438 58.3662 214.891 58.3267C214.345 58.2872 213.877 58.7406 213.354 58.9429C212.266 59.366 211.09 58.6476 210.18 57.9105C209.271 57.1734 208.246 56.3364 207.088 56.5014C206.323 56.6084 205.721 57.1292 205.016 57.4013C204.495 57.6012 203.44 57.7803 202.984 57.3408C202.021 56.4549 204.251 54.16 204.654 53.3322Z" fill="#591D4B"/>
<path opacity="0.1" d="M228.275 80.1624C227.885 79.3951 227.629 78.5116 226.964 77.9675C226.369 77.4792 225.569 77.3606 224.825 77.1421C222.381 76.4189 220.33 74.1844 220.251 71.6361C220.214 70.4386 220.588 69.2388 220.421 68.053C220.324 67.3804 220.055 66.7439 219.642 66.2045C219 65.3697 218.035 64.8094 217.517 63.8793C216.636 62.3261 217.305 60.3055 216.668 58.6337C216.475 58.1245 216.082 57.613 215.538 57.5711C214.994 57.5293 214.522 57.9873 214.001 58.1896C212.913 58.6128 211.734 57.892 210.827 57.1573C209.92 56.4225 208.89 55.5831 207.735 55.7459C206.97 55.8552 206.365 56.376 205.663 56.6457C205.142 56.8457 204.084 57.027 203.628 56.5876C202.671 55.6575 204.9 53.3672 205.3 52.5441C205.633 51.8652 205.798 51.1095 206.198 50.4678C206.219 50.4329 206.242 50.398 206.265 50.3631C205.966 50.611 205.708 50.9044 205.5 51.2327C205.103 51.8745 204.938 52.6278 204.605 53.3091C204.203 54.1322 201.973 56.4295 202.933 57.3526C203.398 57.7944 204.445 57.613 204.965 57.413C205.663 57.141 206.272 56.6201 207.037 56.5132C208.2 56.3481 209.223 57.1875 210.13 57.9222C211.037 58.657 212.222 59.3778 213.306 58.9546C213.827 58.7523 214.282 58.2966 214.84 58.3384C215.399 58.3803 215.771 58.8895 215.973 59.401C216.608 61.0705 215.938 63.0911 216.819 64.6466C217.34 65.5604 218.305 66.1324 218.944 66.9718C219.361 67.5141 219.629 68.155 219.723 68.8319C219.893 70.0177 219.519 71.2152 219.556 72.4127C219.633 74.9704 221.683 77.1955 224.13 77.921C224.867 78.1396 225.671 78.2558 226.266 78.7441C226.934 79.2905 227.196 80.1741 227.578 80.9414C228.838 83.4223 231.9 84.836 234.607 84.1827L234.067 83.5735C231.721 83.6083 229.347 82.2737 228.275 80.1624Z" fill="black"/>
<path opacity="0.1" d="M212.245 69.5503C211.941 70.0153 211.069 72.3963 210.341 74.475C209.66 74.2099 209.041 72.5195 209.041 72.5195L212.673 67.353C213.045 67.8646 212.801 68.7132 212.245 69.5503Z" fill="black"/>
<path d="M212.385 69.4108C212.08 69.8758 211.208 72.2568 210.48 74.3355C209.799 74.0728 209.181 72.38 209.181 72.38L212.813 67.2158C213.185 67.725 212.941 68.576 212.385 69.4108Z" fill="#DCE7FF"/>
<path d="M191.267 93.1647L189.254 86.8148C189.23 86.7405 189.221 86.6621 189.228 86.5843C189.234 86.5065 189.256 86.4308 189.292 86.3614C189.328 86.2921 189.377 86.2305 189.437 86.1802C189.496 86.1299 189.565 86.092 189.64 86.0684C189.79 86.0216 189.952 86.036 190.091 86.1082C190.231 86.1805 190.336 86.305 190.384 86.4544L192.397 92.7974L192.197 94.125L191.267 93.1647Z" fill="#BE8B87"/>
<path opacity="0.1" d="M189.446 86.2567C189.596 86.2092 189.759 86.2231 189.898 86.2955C190.038 86.3678 190.144 86.4927 190.192 86.6427L192.206 92.9858L192.054 93.981L192.201 94.1345L192.401 92.8068L190.376 86.4636C190.328 86.3142 190.222 86.1898 190.083 86.1175C189.944 86.0452 189.781 86.0309 189.632 86.0776C189.505 86.1186 189.397 86.2004 189.322 86.3102C189.362 86.289 189.403 86.2711 189.446 86.2567Z" fill="white"/>
<path d="M191.269 93.1648L192.399 92.8067L192.234 93.8949L192.199 94.1344L191.868 93.7902L191.269 93.1648Z" fill="#EFC8C4"/>
<path d="M191.867 93.7901C191.887 93.7653 191.911 93.7447 191.939 93.7297C191.956 93.7193 191.975 93.7139 191.994 93.7139C192.013 93.7139 192.032 93.7193 192.048 93.7297C192.064 93.7488 192.078 93.7699 192.088 93.7924C192.103 93.8181 192.124 93.84 192.149 93.8565C192.174 93.873 192.202 93.8837 192.232 93.8878L192.197 94.1202L191.867 93.7901Z" fill="#727A9C"/>
<path d="M189.242 89.0702C189.242 89.0702 193.281 89.0469 192.33 90.7652C191.379 92.4835 189.893 92.6905 189.893 92.6905L189.242 89.0702Z" fill="#FFB0B1"/>
<path d="M164.124 11.9561H163.95C157.012 11.9561 150.876 15.6275 147.346 21.0451C143.817 15.6275 137.68 11.9561 130.742 11.9561H130.568C125.361 12.0057 120.384 14.1082 116.718 17.8068C113.053 21.5054 110.995 26.5011 110.992 31.7083C110.992 38.1746 113.824 47.3497 119.346 54.8996C129.868 69.2854 147.346 81.8715 147.346 81.8715C147.346 81.8715 164.824 69.2877 175.343 54.8996C180.868 47.3497 183.698 38.1746 183.698 31.7083C183.695 26.5015 181.637 21.5061 177.972 17.8076C174.307 14.1091 169.331 12.0063 164.124 11.9561ZM161.63 56.0063C160.839 56.0033 160.069 55.7615 159.418 55.3125C158.768 54.8635 158.269 54.2284 157.986 53.4905H153.838C153.565 53.4888 153.299 53.4018 153.078 53.2418C152.856 53.0817 152.69 52.8565 152.603 52.5976L151.329 48.7588L147.297 62.847C147.219 63.1182 147.054 63.3566 146.829 63.5264C146.603 63.6962 146.329 63.7882 146.046 63.7887H145.965C145.67 63.7744 145.39 63.6595 145.17 63.4632C144.949 63.2668 144.803 63.0009 144.756 62.7098L140.601 37.7189L137.564 52.507C137.495 52.7879 137.333 53.0374 137.105 53.2157C136.877 53.3939 136.596 53.4907 136.306 53.4905H130.463C130.288 53.4979 130.113 53.4698 129.949 53.4079C129.785 53.346 129.635 53.2515 129.509 53.1302C129.382 53.0089 129.281 52.8632 129.213 52.702C129.144 52.5407 129.108 52.3672 129.108 52.1919C129.108 52.0166 129.144 51.8431 129.213 51.6818C129.281 51.5206 129.382 51.3749 129.509 51.2536C129.635 51.1323 129.785 51.0378 129.949 50.9759C130.113 50.914 130.288 50.8859 130.463 50.8933H135.283L139.585 31.0108C139.655 30.7168 139.826 30.4565 140.067 30.2744C140.308 30.0922 140.605 29.9996 140.908 30.0122C141.21 30.0248 141.498 30.142 141.723 30.3436C141.948 30.5453 142.097 30.8189 142.142 31.1178L146.386 56.6109L149.999 44.0061C150.074 43.7407 150.233 43.5067 150.453 43.339C150.672 43.1714 150.939 43.0792 151.215 43.0761H151.241C151.514 43.0762 151.78 43.1625 152.002 43.3229C152.223 43.4832 152.388 43.7093 152.473 43.9689L154.777 50.9003H157.935C158.159 50.2182 158.568 49.6114 159.116 49.1469C159.663 48.6824 160.328 48.3782 161.038 48.2679C161.747 48.1576 162.474 48.2455 163.136 48.5219C163.799 48.7983 164.373 49.2524 164.794 49.8341C165.215 50.4158 165.467 51.1025 165.522 51.8184C165.577 52.5344 165.434 53.2517 165.107 53.8911C164.78 54.5306 164.284 55.0674 163.671 55.4423C163.059 55.8172 162.355 56.0156 161.637 56.0156L161.63 56.0063Z" fill="#7085F5"/>
</g>
<defs>
<linearGradient id="paint0_linear" x1="82.8521" y1="180.17" x2="82.8521" y2="37.0933" gradientUnits="userSpaceOnUse">
<stop stop-color="#808080" stop-opacity="0.25"/>
<stop offset="0.54" stop-color="#808080" stop-opacity="0.12"/>
<stop offset="1" stop-color="#808080" stop-opacity="0.1"/>
</linearGradient>
<linearGradient id="paint1_linear" x1="51901.2" y1="107953" x2="51901.2" y2="34510.8" gradientUnits="userSpaceOnUse">
<stop stop-color="#808080" stop-opacity="0.25"/>
<stop offset="0.54" stop-color="#808080" stop-opacity="0.12"/>
<stop offset="1" stop-color="#808080" stop-opacity="0.1"/>
</linearGradient>
<clipPath id="clip0">
<rect width="256.94" height="182" fill="white"/>
</clipPath>
</defs>
</svg>
