<svg width="40" height="40" viewBox="0 0 40 40" fill="none" xmlns="http://www.w3.org/2000/svg">
<path fill-rule="evenodd" clip-rule="evenodd" d="M23.6903 25.2881C19.2792 28.9201 12.7521 28.8106 8.45958 24.8078C3.78748 20.451 3.53188 13.1316 7.88868 8.45955C12.2455 3.78746 19.5648 3.53186 24.2369 7.88866C28.5723 11.9315 29.1049 18.5252 25.678 23.1877L32.9514 29.9702L30.9792 32.0851L23.6903 25.2881ZM22.6646 22.2951C19.3937 25.7699 13.9257 25.9511 10.4318 22.693C6.92771 19.4254 6.73601 13.9358 10.0036 10.4318C13.2712 6.92769 18.7607 6.73599 22.2648 10.0036C25.7587 13.2617 25.9594 18.729 22.7212 22.2343L22.6646 22.2951Z" fill="#C4C4C4"/>
</svg>
