<svg width="108" height="127" viewBox="0 0 108 127" fill="none" xmlns="http://www.w3.org/2000/svg">
<path opacity="0.9" d="M82.4137 33.4115L67.8291 10.5182L61.0389 14.844L63.2614 18.3328L10.287 52.0812C9.22421 52.7388 8.30262 53.6011 7.57572 54.6178C6.84882 55.6345 6.3311 56.7854 6.0526 58.0038C5.7741 59.2222 5.74037 60.4838 5.95337 61.7153C6.16637 62.9469 6.62185 64.1239 7.29338 65.178C7.96491 66.2321 8.83912 67.1423 9.86526 67.8558C10.8914 68.5693 12.049 69.0719 13.271 69.3344C14.4929 69.5969 15.7549 69.6141 16.9835 69.385C18.2121 69.1559 19.383 68.685 20.4283 67.9997L73.4027 34.2513L75.6235 37.7373L82.4137 33.4115Z" fill="#96B7FE"/>
<path d="M54.6388 31.2824C54.6388 31.2824 60.272 35.6587 59.8376 38.1523C59.8376 38.1523 55.0034 38.0065 53.7928 35.8077C52.5822 33.6089 54.6388 31.2824 54.6388 31.2824Z" fill="#6C63FF"/>
<path opacity="0.1" d="M54.6388 31.2824C54.6388 31.2824 60.272 35.6587 59.8376 38.1523C59.8376 38.1523 55.0034 38.0065 53.7928 35.8077C52.5822 33.6089 54.6388 31.2824 54.6388 31.2824Z" fill="black"/>
<path d="M59.8303 38.153L21.3819 62.6473C20.7441 63.0536 20.0326 63.3303 19.2879 63.4616C18.5431 63.5929 17.7799 63.5763 17.0416 63.4126C16.3033 63.2489 15.6045 62.9414 14.985 62.5077C14.3656 62.0739 13.8376 61.5224 13.4313 60.8847C12.6107 59.5966 12.3355 58.0353 12.666 56.5443C12.9966 55.0533 13.9059 53.7546 15.1939 52.9341L53.6423 28.4398C53.6423 28.4398 55.7618 30.3766 55.815 33.4395C55.8682 36.5024 59.8303 38.153 59.8303 38.153Z" fill="#6C63FF"/>
<path opacity="0.1" d="M73.444 34.2216L63.3027 18.303L62.9898 18.5024L73.131 34.421L73.444 34.2216Z" fill="black"/>
<path opacity="0.3" d="M60.5129 30.8925C60.861 31.4389 61.5861 31.5996 62.1325 31.2515C62.679 30.9034 62.8397 30.1783 62.4916 29.6319C62.1435 29.0855 61.4184 28.9247 60.872 29.2728C60.3256 29.6209 60.1648 30.3461 60.5129 30.8925Z" fill="#6C63FF"/>
<path opacity="0.3" d="M66.4422 31.6661C66.6638 32.014 67.1256 32.1164 67.4735 31.8947C67.8214 31.6731 67.9238 31.2113 67.7021 30.8634C67.4805 30.5155 67.0187 30.4131 66.6708 30.6348C66.3229 30.8564 66.2205 31.3182 66.4422 31.6661Z" fill="#6C63FF"/>
<path opacity="0.3" d="M64.8933 26.4573C65.115 26.8052 65.5767 26.9076 65.9246 26.6859C66.2726 26.4643 66.3749 26.0025 66.1533 25.6546C65.9316 25.3067 65.4699 25.2043 65.122 25.426C64.7741 25.6476 64.6717 26.1094 64.8933 26.4573Z" fill="#6C63FF"/>
<path opacity="0.2" d="M44.7678 31.8437C43.4777 32.4543 42.0018 33.4368 42.1242 34.8592C42.0205 33.665 49.6568 33.9603 50.4088 32.7493C52.0042 30.1634 45.9631 31.2744 44.7678 31.8437Z" fill="white"/>
<path opacity="0.3" d="M80.5061 21.0408C81.3519 22.3684 83.1136 22.7589 84.4412 21.9132C85.7687 21.0675 86.1593 19.3057 85.3136 17.9782C84.4678 16.6506 82.7061 16.2601 81.3785 17.1058C80.051 17.9515 79.6604 19.7133 80.5061 21.0408Z" fill="#6C63FF"/>
<path opacity="0.3" d="M80.6498 10.8115C81.2787 11.7987 82.5888 12.0891 83.5759 11.4602C84.5631 10.8313 84.8535 9.52126 84.2246 8.53411C83.5958 7.54695 82.2857 7.25652 81.2985 7.88541C80.3114 8.5143 80.0209 9.82436 80.6498 10.8115Z" fill="#6C63FF"/>
<path opacity="0.3" d="M89.5968 12.3525C89.9237 12.8657 90.6048 13.0167 91.118 12.6897C91.6312 12.3628 91.7822 11.6817 91.4553 11.1685C91.1283 10.6553 90.4472 10.5043 89.934 10.8312C89.4208 11.1582 89.2699 11.8393 89.5968 12.3525Z" fill="#6C63FF"/>
<path opacity="0.9" d="M91.8276 78.6807V53.4934H95.2573V45.9744H70.682V53.4934H74.1118V78.6807C69.3753 80.4796 65.2978 83.6761 62.4203 87.8461C59.5427 92.0162 58.0011 96.9626 58 102.029C58 115.821 69.1809 127 82.9723 127C96.7637 127 107.943 115.821 107.943 102.029C107.942 96.9621 106.4 92.0153 103.522 87.8451C100.643 83.675 96.5648 80.4788 91.8276 78.6807V78.6807Z" fill="#96B7FE"/>
<path opacity="0.1" d="M91.8275 53.4154H74.1064V53.7544H91.8275V53.4154Z" fill="black"/>
<path d="M69 101.359C69 101.359 84.038 101.095 91.557 97.3316C99.076 93.5681 103.372 96.928 102.969 99.2114C102.565 101.495 100.419 105.923 91.8261 106.467C83.2333 107.01 69 101.359 69 101.359Z" fill="#6C63FF"/>
<path opacity="0.1" d="M69 101.359C69 101.359 84.038 101.095 91.557 97.3316C99.076 93.5681 103.372 96.928 102.969 99.2114C102.565 101.495 100.419 105.923 91.8261 106.467C83.2333 107.01 69 101.359 69 101.359Z" fill="black"/>
<path d="M62.5604 98.9449C62.5604 98.9449 60.9537 121.231 82.0266 121.634C103.1 122.036 102.97 99.2087 102.97 99.2087C102.97 99.2087 95.1875 107.666 76.791 100.685C76.791 100.69 67.2591 98.1389 62.5604 98.9449Z" fill="#6C63FF"/>
<path opacity="0.1" d="M102.901 99.2891C102.481 104.423 99.7512 120.494 82.0341 120.155C64.6666 119.827 62.6997 104.643 62.5454 99.3023C62.4491 102.169 62.5349 121.259 82.0302 121.632C103.108 122.028 102.974 99.2073 102.974 99.2073C102.974 99.2073 102.947 99.2403 102.901 99.2891Z" fill="black"/>
<path opacity="0.3" d="M82.1545 92.0631C83.6647 92.0631 84.889 90.8388 84.889 89.3285C84.889 87.8183 83.6647 86.594 82.1545 86.594C80.6442 86.594 79.4199 87.8183 79.4199 89.3285C79.4199 90.8388 80.6442 92.0631 82.1545 92.0631Z" fill="#6C63FF"/>
<path opacity="0.3" d="M83.7159 80.0815C84.6506 80.0815 85.4083 79.3237 85.4083 78.389C85.4083 77.4543 84.6506 76.6966 83.7159 76.6966C82.7812 76.6966 82.0234 77.4543 82.0234 78.389C82.0234 79.3237 82.7812 80.0815 83.7159 80.0815Z" fill="#6C63FF"/>
<path opacity="0.3" d="M79.9395 70.3135C80.8742 70.3135 81.6319 69.5557 81.6319 68.621C81.6319 67.6863 80.8742 66.9286 79.9395 66.9286C79.0048 66.9286 78.2471 67.6863 78.2471 68.621C78.2471 69.5557 79.0048 70.3135 79.9395 70.3135Z" fill="#6C63FF"/>
<path opacity="0.2" d="M65.4383 91.4378C65.2932 92.5908 65.3223 94.0339 66.3525 94.5721C65.4885 94.1209 69.0303 89.0054 68.5277 87.9606C67.4526 85.7313 65.5702 90.3667 65.4383 91.4378Z" fill="white"/>
<path opacity="0.3" d="M78.5715 40.9484C80.0817 40.9484 81.306 39.7241 81.306 38.2138C81.306 36.7036 80.0817 35.4793 78.5715 35.4793C77.0612 35.4793 75.8369 36.7036 75.8369 38.2138C75.8369 39.7241 77.0612 40.9484 78.5715 40.9484Z" fill="#6C63FF"/>
<path opacity="0.3" d="M86.775 35.5584C87.8976 35.5584 88.8077 34.6483 88.8077 33.5256C88.8077 32.403 87.8976 31.4929 86.775 31.4929C85.6523 31.4929 84.7422 32.403 84.7422 33.5256C84.7422 34.6483 85.6523 35.5584 86.775 35.5584Z" fill="#6C63FF"/>
<path opacity="0.3" d="M80.916 29.1132C81.4995 29.1132 81.9726 28.6402 81.9726 28.0566C81.9726 27.4731 81.4995 27 80.916 27C80.3324 27 79.8594 27.4731 79.8594 28.0566C79.8594 28.6402 80.3324 29.1132 80.916 29.1132Z" fill="#6C63FF"/>
</svg>
